<?xml version="1.0" encoding="UTF-8" standalone="no"?>
<!-- Created with Inkscape (http://www.inkscape.org/) -->
<svg xmlns:svg="http://www.w3.org/2000/svg" xmlns="http://www.w3.org/2000/svg" version="1.0" width="820" height="1283.219" viewBox="0 0 820 1283.219" id="svg2" xml:space="preserve"><defs id="defs276">
	</defs><g id="g4663"><g transform="matrix(1.40339, 0, 0, 1.40339, 247.089, 66.2349)" id="text3371">
			<path d="m 76.492,-18.807 v -2.352 l 8.49,-0.014 v 7.437 c -1.303,1.039 -2.648,1.821 -4.033,2.345 -1.385,0.524 -2.807,0.786 -4.266,0.786 -1.969,0 -3.758,-0.422 -5.366,-1.265 -1.609,-0.843 -2.823,-2.062 -3.644,-3.657 -0.82,-1.595 -1.23,-3.377 -1.23,-5.346 0,-1.951 0.408,-3.771 1.223,-5.462 0.816,-1.691 1.989,-2.946 3.521,-3.767 1.531,-0.82 3.295,-1.23 5.291,-1.23 1.449,0 2.76,0.234 3.931,0.704 1.171,0.469 2.09,1.123 2.755,1.962 0.665,0.839 1.171,1.932 1.518,3.281 l -2.393,0.656 c -0.301,-1.021 -0.674,-1.823 -1.121,-2.406 -0.446,-0.583 -1.084,-1.05 -1.914,-1.401 -0.829,-0.351 -1.75,-0.526 -2.762,-0.526 -1.212,0 -2.26,0.184 -3.145,0.554 -0.885,0.37 -1.598,0.854 -2.14,1.456 -0.542,0.602 -0.964,1.262 -1.264,1.983 -0.511,1.24 -0.766,2.584 -0.766,4.033 0,1.786 0.308,3.281 0.923,4.484 0.615,1.203 1.511,2.096 2.686,2.679 1.176,0.583 2.425,0.875 3.747,0.875 1.148,0 2.269,-0.221 3.363,-0.663 1.094,-0.442 1.923,-0.914 2.488,-1.415 v -3.732 h -5.892 z" id="path3612"/>
			<path d="m 88.51,-10.946 v -20.043 h 2.461 v 20.043 H 88.51 z" id="path3614"/>
			<path d="m 104.315,-10.946 v -2.133 c -1.131,1.641 -2.667,2.461 -4.608,2.461 -0.857,0 -1.656,-0.164 -2.399,-0.492 -0.742,-0.328 -1.294,-0.741 -1.654,-1.237 -0.36,-0.497 -0.613,-1.105 -0.759,-1.825 -0.1,-0.483 -0.15,-1.249 -0.15,-2.297 v -8.996 h 2.461 v 8.053 c 0,1.285 0.05,2.151 0.15,2.598 0.155,0.647 0.483,1.155 0.985,1.524 0.501,0.369 1.121,0.554 1.859,0.554 0.738,0 1.431,-0.189 2.078,-0.568 0.647,-0.378 1.105,-0.893 1.374,-1.545 0.269,-0.652 0.403,-1.597 0.403,-2.837 v -7.779 h 2.461 v 14.519 h -2.201 z" id="path3616"/>
			<path d="m 119.859,-16.264 2.419,0.314 c -0.264,1.668 -0.941,2.974 -2.03,3.917 -1.09,0.944 -2.427,1.415 -4.013,1.415 -1.987,0 -3.584,-0.65 -4.792,-1.948 -1.208,-1.299 -1.811,-3.161 -1.811,-5.585 0,-1.568 0.26,-2.939 0.779,-4.115 0.52,-1.176 1.31,-2.058 2.372,-2.645 1.062,-0.588 2.217,-0.882 3.466,-0.882 1.577,0 2.866,0.399 3.869,1.196 1.003,0.798 1.645,1.93 1.928,3.398 l -2.392,0.369 c -0.228,-0.975 -0.631,-1.709 -1.21,-2.201 -0.578,-0.492 -1.278,-0.738 -2.099,-0.738 -1.239,0 -2.246,0.444 -3.021,1.333 -0.774,0.889 -1.162,2.295 -1.162,4.218 0,1.95 0.374,3.368 1.121,4.252 0.747,0.884 1.723,1.326 2.926,1.326 0.966,0 1.773,-0.296 2.42,-0.889 0.647,-0.593 1.057,-1.505 1.23,-2.735 z" id="path3618"/>
			<path d="m 123.469,-18.206 c 0,-2.689 0.747,-4.68 2.242,-5.975 1.248,-1.076 2.771,-1.613 4.566,-1.613 1.996,0 3.628,0.654 4.895,1.962 1.267,1.308 1.9,3.115 1.9,5.421 0,1.869 -0.28,3.338 -0.841,4.409 -0.561,1.071 -1.376,1.903 -2.447,2.495 -1.071,0.592 -2.24,0.889 -3.507,0.889 -2.033,0 -3.676,-0.652 -4.929,-1.955 -1.253,-1.303 -1.879,-3.181 -1.879,-5.633 z m 2.529,0 c 0,1.859 0.405,3.251 1.216,4.177 0.811,0.925 1.832,1.388 3.062,1.388 1.221,0 2.238,-0.465 3.049,-1.394 0.811,-0.93 1.216,-2.347 1.216,-4.252 0,-1.796 -0.408,-3.156 -1.223,-4.081 -0.816,-0.925 -1.83,-1.388 -3.042,-1.388 -1.23,0 -2.251,0.46 -3.062,1.381 -0.811,0.92 -1.216,2.31 -1.216,4.169 z" id="path3620"/>
			<path d="m 138.986,-15.28 2.433,-0.383 c 0.136,0.975 0.517,1.723 1.142,2.242 0.624,0.519 1.497,0.779 2.618,0.779 1.13,0 1.969,-0.23 2.516,-0.69 0.547,-0.46 0.82,-1.001 0.82,-1.62 0,-0.556 -0.241,-0.993 -0.724,-1.312 -0.337,-0.219 -1.176,-0.497 -2.516,-0.834 -1.805,-0.456 -3.056,-0.85 -3.753,-1.183 -0.697,-0.333 -1.225,-0.793 -1.586,-1.381 -0.36,-0.588 -0.54,-1.237 -0.54,-1.948 0,-0.647 0.148,-1.246 0.445,-1.798 0.296,-0.552 0.699,-1.009 1.21,-1.374 0.383,-0.282 0.905,-0.522 1.565,-0.718 0.661,-0.196 1.369,-0.294 2.126,-0.294 1.14,0 2.14,0.164 3.001,0.492 0.861,0.328 1.497,0.772 1.907,1.333 0.41,0.561 0.692,1.31 0.848,2.249 l -2.406,0.328 c -0.109,-0.747 -0.426,-1.331 -0.951,-1.75 -0.524,-0.419 -1.264,-0.629 -2.221,-0.629 -1.13,0 -1.937,0.187 -2.42,0.561 -0.483,0.374 -0.724,0.811 -0.724,1.312 0,0.319 0.1,0.606 0.301,0.861 0.2,0.264 0.515,0.483 0.944,0.656 0.246,0.091 0.971,0.301 2.174,0.629 1.74,0.465 2.955,0.845 3.643,1.142 0.688,0.296 1.228,0.727 1.62,1.292 0.392,0.565 0.588,1.267 0.588,2.105 0,0.82 -0.239,1.593 -0.718,2.318 -0.478,0.725 -1.169,1.285 -2.071,1.682 -0.903,0.397 -1.923,0.595 -3.062,0.595 -1.887,0 -3.325,-0.392 -4.314,-1.176 -0.99,-0.784 -1.621,-1.946 -1.895,-3.486 z" id="path3622"/>
			<path d="m 163.91,-15.622 2.543,0.314 c -0.402,1.486 -1.144,2.639 -2.229,3.459 -1.085,0.82 -2.47,1.231 -4.156,1.231 -2.124,0 -3.808,-0.654 -5.052,-1.962 -1.243,-1.308 -1.866,-3.142 -1.866,-5.503 0,-2.442 0.628,-4.338 1.886,-5.687 1.257,-1.349 2.889,-2.024 4.895,-2.024 1.941,0 3.527,0.661 4.758,1.983 1.23,1.321 1.845,3.181 1.845,5.578 0,0.146 -0.005,0.365 -0.013,0.656 h -10.828 c 0.091,1.595 0.542,2.816 1.353,3.664 0.811,0.848 1.823,1.271 3.035,1.271 0.903,0 1.672,-0.237 2.31,-0.711 0.639,-0.473 1.145,-1.23 1.519,-2.269 z m -8.08,-3.978 h 8.108 c -0.11,-1.222 -0.42,-2.137 -0.93,-2.748 -0.784,-0.948 -1.8,-1.422 -3.049,-1.422 -1.13,0 -2.081,0.378 -2.85,1.135 -0.771,0.756 -1.197,1.768 -1.279,3.035 z" id="path3624"/>
		</g><path d="M 320.54403,11.40292 H 500.59394 V 62.214224 H 320.54403 V 11.40292 l 0,0 z" id="rect3699" style="fill: none; stroke: rgb(0, 0, 0); stroke-width: 2.80679; stroke-linecap: round; stroke-linejoin: round;"/></g><g id="g4652"><g transform="matrix(1.40339, 0, 0, 1.40339, 247.089, 66.2349)" id="text3371-7">
			<path d="m 79.616,64.586 v -2.351 l 8.49,-0.014 v 7.438 c -1.303,1.039 -2.648,1.821 -4.033,2.345 -1.385,0.524 -2.807,0.786 -4.266,0.786 -1.969,0 -3.757,-0.421 -5.366,-1.265 -1.609,-0.843 -2.823,-2.062 -3.643,-3.657 -0.82,-1.595 -1.231,-3.377 -1.231,-5.346 0,-1.95 0.408,-3.771 1.224,-5.462 0.816,-1.691 1.989,-2.946 3.52,-3.767 1.532,-0.82 3.295,-1.23 5.291,-1.23 1.449,0 2.759,0.235 3.93,0.704 1.171,0.469 2.09,1.123 2.755,1.962 0.666,0.839 1.171,1.932 1.518,3.281 l -2.392,0.657 c -0.301,-1.021 -0.674,-1.823 -1.121,-2.406 -0.447,-0.583 -1.085,-1.051 -1.914,-1.401 -0.829,-0.351 -1.75,-0.526 -2.762,-0.526 -1.212,0 -2.26,0.185 -3.145,0.554 -0.884,0.369 -1.597,0.855 -2.139,1.456 -0.543,0.602 -0.964,1.263 -1.265,1.982 -0.51,1.24 -0.765,2.584 -0.765,4.033 0,1.787 0.308,3.281 0.923,4.484 0.615,1.203 1.511,2.096 2.687,2.68 1.176,0.583 2.424,0.875 3.746,0.875 1.149,0 2.27,-0.221 3.364,-0.663 1.093,-0.442 1.923,-0.914 2.488,-1.415 v -3.733 h -5.894 z" id="path3596"/>
			<path d="M 91.634,72.447 V 52.404 h 2.461 v 20.043 h -2.461 z" id="path3598"/>
			<path d="m 107.438,72.447 v -2.133 c -1.13,1.641 -2.666,2.461 -4.607,2.461 -0.857,0 -1.657,-0.164 -2.399,-0.492 -0.743,-0.328 -1.294,-0.74 -1.655,-1.237 -0.36,-0.497 -0.613,-1.105 -0.758,-1.825 -0.1,-0.483 -0.15,-1.249 -0.15,-2.297 v -8.996 h 2.461 v 8.052 c 0,1.285 0.05,2.151 0.15,2.598 0.155,0.647 0.484,1.156 0.985,1.525 0.501,0.369 1.121,0.554 1.859,0.554 0.738,0 1.431,-0.189 2.079,-0.567 0.647,-0.378 1.105,-0.893 1.374,-1.545 0.269,-0.652 0.404,-1.597 0.404,-2.837 v -7.779 h 2.461 v 14.519 h -2.204 z" id="path3600"/>
			<path d="m 112.552,66.431 v -2.474 h 7.56 v 2.474 h -7.56 z" id="path3602"/>
			<path d="m 134.946,57.312 -2.447,0.191 c -0.219,-0.966 -0.529,-1.668 -0.93,-2.105 -0.665,-0.702 -1.486,-1.053 -2.461,-1.053 -0.784,0 -1.472,0.219 -2.064,0.656 -0.775,0.565 -1.385,1.39 -1.832,2.475 -0.447,1.084 -0.679,2.63 -0.697,4.635 0.592,-0.903 1.317,-1.572 2.174,-2.01 0.857,-0.438 1.754,-0.657 2.693,-0.657 1.641,0 3.037,0.604 4.19,1.812 1.153,1.208 1.73,2.768 1.73,4.682 0,1.258 -0.271,2.427 -0.813,3.507 -0.543,1.08 -1.287,1.907 -2.236,2.481 -0.948,0.574 -2.024,0.861 -3.226,0.861 -2.051,0 -3.724,-0.754 -5.018,-2.263 -1.294,-1.509 -1.941,-3.995 -1.941,-7.458 0,-3.873 0.715,-6.69 2.147,-8.449 1.248,-1.531 2.93,-2.297 5.045,-2.297 1.577,0 2.868,0.442 3.876,1.326 1.006,0.886 1.61,2.108 1.81,3.666 z m -10.049,8.641 c 0,0.848 0.18,1.659 0.54,2.433 0.36,0.775 0.864,1.365 1.511,1.771 0.647,0.406 1.326,0.609 2.037,0.609 1.039,0 1.932,-0.419 2.68,-1.258 0.747,-0.839 1.121,-1.978 1.121,-3.418 0,-1.385 -0.37,-2.477 -1.108,-3.274 -0.738,-0.798 -1.668,-1.197 -2.789,-1.197 -1.112,0 -2.056,0.399 -2.83,1.197 -0.774,0.797 -1.162,1.843 -1.162,3.137 z" id="path3604"/>
			<path d="m 137.489,66.431 v -2.474 h 7.56 v 2.474 h -7.56 z" id="path3606"/>
			<path d="M 148.112,72.447 V 52.404 h 7.56 c 1.331,0 2.347,0.064 3.049,0.191 0.984,0.164 1.809,0.476 2.474,0.937 0.665,0.46 1.201,1.105 1.607,1.934 0.406,0.829 0.608,1.741 0.608,2.735 0,1.704 -0.542,3.147 -1.627,4.327 -1.085,1.18 -3.044,1.771 -5.879,1.771 h -5.14 v 8.148 h -2.652 z m 2.653,-10.514 h 5.182 c 1.713,0 2.93,-0.319 3.65,-0.957 0.72,-0.638 1.081,-1.536 1.081,-2.693 0,-0.839 -0.212,-1.556 -0.636,-2.153 -0.424,-0.597 -0.983,-0.991 -1.675,-1.183 -0.447,-0.118 -1.271,-0.178 -2.474,-0.178 h -5.127 v 7.164 z" id="path3608"/>
		</g><path d="m 320.54403,128.43761 h 180.04991 v 50.8113 H 320.54403 v -50.8113 l 0,0 z" id="rect3699-9" style="fill: none; stroke: rgb(0, 0, 0); stroke-width: 2.80679; stroke-linecap: round; stroke-linejoin: round;"/></g><g id="g4641"><g transform="matrix(1.40339, 0, 0, 1.40339, 247.089, 66.2349)" id="text3371-7-0">
			<path d="M 70.736,156.923 V 136.88 h 13.522 v 2.365 H 73.389 v 6.207 h 9.406 v 2.365 h -9.406 v 9.105 h -2.653 z" id="path3580"/>
			<path d="m 87.375,156.923 v -14.519 h 2.215 v 2.201 c 0.565,-1.03 1.087,-1.709 1.566,-2.037 0.479,-0.328 1.005,-0.492 1.579,-0.492 0.829,0 1.673,0.264 2.529,0.793 l -0.848,2.283 c -0.602,-0.356 -1.203,-0.533 -1.805,-0.533 -0.537,0 -1.021,0.162 -1.449,0.486 -0.429,0.324 -0.734,0.772 -0.916,1.346 -0.273,0.875 -0.41,1.832 -0.41,2.871 v 7.602 h -2.461 z" id="path3582"/>
			<path d="m 106.269,156.923 v -2.133 c -1.13,1.641 -2.666,2.461 -4.607,2.461 -0.857,0 -1.657,-0.164 -2.399,-0.492 -0.743,-0.328 -1.294,-0.741 -1.654,-1.238 -0.36,-0.497 -0.613,-1.105 -0.759,-1.825 -0.1,-0.483 -0.15,-1.248 -0.15,-2.297 v -8.996 h 2.461 v 8.053 c 0,1.285 0.05,2.151 0.15,2.598 0.154,0.647 0.483,1.155 0.984,1.524 0.502,0.369 1.121,0.554 1.859,0.554 0.738,0 1.431,-0.189 2.079,-0.567 0.648,-0.378 1.105,-0.893 1.374,-1.545 0.269,-0.652 0.404,-1.597 0.404,-2.837 v -7.779 h 2.461 v 14.519 h -2.203 z" id="path3584"/>
			<path d="m 111.382,150.907 v -2.474 h 7.56 v 2.474 h -7.56 z" id="path3586"/>
			<path d="m 133.777,141.788 -2.447,0.192 c -0.219,-0.966 -0.529,-1.668 -0.93,-2.106 -0.665,-0.702 -1.486,-1.052 -2.461,-1.052 -0.784,0 -1.472,0.219 -2.065,0.656 -0.775,0.565 -1.385,1.39 -1.832,2.474 -0.447,1.085 -0.679,2.63 -0.697,4.635 0.592,-0.902 1.317,-1.572 2.174,-2.01 0.857,-0.438 1.754,-0.656 2.693,-0.657 1.641,0 3.038,0.604 4.19,1.812 1.153,1.208 1.73,2.768 1.73,4.683 0,1.258 -0.271,2.426 -0.813,3.507 -0.542,1.08 -1.287,1.907 -2.236,2.481 -0.948,0.574 -2.023,0.861 -3.226,0.861 -2.051,0 -3.724,-0.754 -5.018,-2.263 -1.294,-1.508 -1.941,-3.995 -1.941,-7.458 0,-3.874 0.715,-6.69 2.147,-8.449 1.248,-1.531 2.93,-2.297 5.045,-2.297 1.577,0 2.868,0.442 3.876,1.326 1.007,0.886 1.611,2.107 1.811,3.665 z m -10.049,8.641 c 0,0.848 0.18,1.659 0.54,2.434 0.36,0.774 0.864,1.365 1.511,1.77 0.647,0.406 1.326,0.609 2.037,0.609 1.039,0 1.932,-0.419 2.68,-1.258 0.747,-0.839 1.121,-1.978 1.121,-3.418 0,-1.385 -0.37,-2.477 -1.108,-3.274 -0.738,-0.797 -1.668,-1.197 -2.789,-1.197 -1.112,0 -2.056,0.399 -2.83,1.197 -0.774,0.797 -1.162,1.843 -1.162,3.137 l 0,0 z" id="path3588"/>
			<path d="m 136.32,150.907 v -2.474 h 7.561 v 2.474 h -7.561 z" id="path3590"/>
			<path d="M 146.944,156.923 V 136.88 h 7.56 c 1.33,0 2.347,0.064 3.049,0.191 0.985,0.164 1.809,0.476 2.474,0.936 0.665,0.46 1.201,1.105 1.607,1.935 0.406,0.829 0.608,1.741 0.608,2.734 0,1.704 -0.542,3.147 -1.627,4.327 -1.085,1.18 -3.044,1.77 -5.879,1.77 h -5.141 v 8.148 h -2.651 z m 2.651,-10.514 h 5.182 c 1.713,0 2.93,-0.319 3.65,-0.957 0.72,-0.638 1.08,-1.536 1.08,-2.694 0,-0.839 -0.212,-1.556 -0.636,-2.153 -0.424,-0.597 -0.982,-0.991 -1.675,-1.183 -0.447,-0.118 -1.271,-0.177 -2.474,-0.177 h -5.127 v 7.164 z" id="path3592"/>
		</g><path d="m 320.54403,247.17181 h 180.04991 v 50.8113 H 320.54403 v -50.8113 l 0,0 z" id="rect3699-7" style="fill: none; stroke: rgb(0, 0, 0); stroke-width: 2.80679; stroke-linecap: round; stroke-linejoin: round;"/></g><g id="g4627"><g transform="matrix(1.40339, 0, 0, 1.40339, 247.089, 66.2349)" id="text3371-7-0-4">
			<path d="m 51.267,239.821 v -20.043 h 13.522 v 2.365 H 53.92 v 6.207 h 9.406 v 2.365 H 53.92 v 9.105 h -2.653 z" id="path3558"/>
			<path d="m 67.906,239.821 v -14.519 h 2.215 v 2.201 c 0.565,-1.03 1.087,-1.709 1.566,-2.037 0.478,-0.328 1.005,-0.492 1.579,-0.492 0.829,0 1.673,0.264 2.529,0.793 l -0.848,2.283 c -0.602,-0.355 -1.203,-0.533 -1.805,-0.533 -0.538,0 -1.021,0.162 -1.449,0.485 -0.429,0.324 -0.734,0.772 -0.916,1.346 -0.273,0.875 -0.41,1.832 -0.41,2.871 v 7.602 h -2.461 z" id="path3560"/>
			<path d="m 86.801,239.821 v -2.133 c -1.13,1.641 -2.666,2.461 -4.607,2.461 -0.857,0 -1.657,-0.164 -2.399,-0.492 -0.743,-0.328 -1.294,-0.741 -1.655,-1.237 -0.36,-0.497 -0.612,-1.105 -0.758,-1.825 -0.1,-0.483 -0.15,-1.249 -0.15,-2.297 v -8.996 h 2.461 v 8.053 c 0,1.285 0.05,2.151 0.151,2.598 0.154,0.647 0.483,1.155 0.984,1.524 0.502,0.369 1.121,0.554 1.859,0.554 0.738,0 1.431,-0.189 2.079,-0.567 0.648,-0.378 1.105,-0.893 1.374,-1.545 0.269,-0.652 0.404,-1.597 0.404,-2.837 v -7.779 h 2.461 v 14.519 h -2.204 z" id="path3562"/>
			<path d="m 91.914,233.805 v -2.474 h 7.56 v 2.474 h -7.56 z" id="path3564"/>
			<path d="m 110.808,239.821 h -2.461 V 224.14 c -0.593,0.565 -1.369,1.13 -2.331,1.695 -0.962,0.565 -1.825,0.989 -2.591,1.272 v -2.379 c 1.376,-0.647 2.579,-1.431 3.609,-2.352 1.031,-0.921 1.759,-1.814 2.188,-2.68 h 1.586 v 20.125 z" id="path3566"/>
			<path d="m 118.451,239.821 v -2.803 h 2.803 v 2.803 c 0,1.03 -0.182,1.862 -0.547,2.495 -0.365,0.633 -0.944,1.123 -1.736,1.47 l -0.684,-1.053 c 0.52,-0.228 0.903,-0.563 1.149,-1.005 0.246,-0.442 0.383,-1.078 0.41,-1.907 h -1.395 z" id="path3568"/>
			<path d="m 137.66,224.686 -2.447,0.191 c -0.219,-0.966 -0.529,-1.668 -0.93,-2.106 -0.665,-0.702 -1.486,-1.052 -2.461,-1.052 -0.784,0 -1.472,0.219 -2.064,0.656 -0.775,0.565 -1.385,1.39 -1.832,2.474 -0.447,1.085 -0.679,2.63 -0.697,4.635 0.592,-0.902 1.317,-1.572 2.174,-2.01 0.857,-0.437 1.754,-0.656 2.693,-0.656 1.641,0 3.037,0.604 4.19,1.811 1.153,1.208 1.73,2.769 1.73,4.683 0,1.258 -0.271,2.427 -0.813,3.507 -0.543,1.08 -1.287,1.907 -2.236,2.481 -0.948,0.574 -2.024,0.861 -3.226,0.861 -2.051,0 -3.724,-0.754 -5.018,-2.263 -1.294,-1.508 -1.941,-3.994 -1.941,-7.458 0,-3.874 0.715,-6.69 2.147,-8.449 1.248,-1.531 2.93,-2.297 5.045,-2.297 1.577,0 2.868,0.442 3.876,1.326 1.006,0.886 1.61,2.107 1.81,3.666 l 0,0 z m -10.049,8.64 c 0,0.848 0.18,1.659 0.54,2.434 0.36,0.774 0.864,1.365 1.511,1.77 0.647,0.406 1.326,0.609 2.037,0.609 1.039,0 1.932,-0.419 2.68,-1.258 0.747,-0.839 1.121,-1.978 1.121,-3.418 0,-1.385 -0.37,-2.477 -1.108,-3.274 -0.738,-0.797 -1.668,-1.196 -2.789,-1.196 -1.112,0 -2.056,0.399 -2.83,1.196 -0.774,0.797 -1.162,1.843 -1.162,3.137 l 0,0 z" id="path3570"/>
			<path d="m 140.203,233.805 v -2.474 h 7.56 v 2.474 h -7.56 z" id="path3572"/>
			<path d="m 152.781,239.821 h -2.283 v -20.043 h 2.461 v 7.15 c 1.04,-1.303 2.366,-1.955 3.979,-1.955 0.893,0 1.738,0.18 2.536,0.54 0.797,0.36 1.454,0.866 1.969,1.518 0.515,0.652 0.918,1.438 1.21,2.358 0.292,0.921 0.437,1.905 0.437,2.953 0,2.488 -0.615,4.411 -1.845,5.769 -1.23,1.358 -2.707,2.037 -4.43,2.037 -1.713,0 -3.058,-0.715 -4.033,-2.146 v 1.819 z m -0.027,-7.37 c 0,1.741 0.237,2.999 0.711,3.774 0.775,1.267 1.822,1.9 3.144,1.9 1.076,0 2.005,-0.467 2.79,-1.401 0.784,-0.934 1.175,-2.327 1.175,-4.177 0,-1.896 -0.376,-3.295 -1.128,-4.197 -0.752,-0.903 -1.661,-1.353 -2.727,-1.353 -1.076,0 -2.005,0.467 -2.789,1.401 -0.784,0.934 -1.176,2.285 -1.176,4.053 l 0,0 z" id="path3574"/>
			<path d="m 166.412,239.821 v -20.043 h 7.56 c 1.33,0 2.347,0.064 3.049,0.191 0.985,0.164 1.809,0.476 2.474,0.937 0.665,0.46 1.201,1.105 1.607,1.934 0.406,0.829 0.608,1.741 0.608,2.734 0,1.704 -0.542,3.147 -1.627,4.327 -1.085,1.18 -3.044,1.77 -5.879,1.77 h -5.141 v 8.148 h -2.651 z m 2.652,-10.514 h 5.182 c 1.713,0 2.93,-0.319 3.65,-0.957 0.72,-0.638 1.08,-1.536 1.08,-2.693 0,-0.839 -0.212,-1.556 -0.636,-2.153 -0.424,-0.597 -0.982,-0.991 -1.675,-1.183 -0.446,-0.119 -1.271,-0.178 -2.474,-0.178 h -5.127 v 7.164 z" id="path3576"/>
		</g><path d="m 300.76879,366.16002 h 219.60038 v 50.59659 H 300.76879 v -50.59659 z" id="rect3699-7-9" style="fill: none; stroke: rgb(0, 0, 0); stroke-width: 2.80679; stroke-linecap: round; stroke-linejoin: round;"/></g><g id="g4619"><g transform="matrix(1.40339, 0, 0, 1.40339, 247.089, 66.2349)" id="text3371-7-0-4-8-4">
			<path d="m 161.008,348.316 v -20.043 h 6.904 c 1.559,0 2.748,0.096 3.568,0.287 1.148,0.264 2.128,0.742 2.939,1.436 1.057,0.893 1.848,2.035 2.372,3.424 0.524,1.39 0.786,2.978 0.786,4.765 0,1.523 -0.177,2.871 -0.533,4.047 -0.356,1.176 -0.811,2.149 -1.367,2.919 -0.557,0.77 -1.165,1.376 -1.825,1.818 -0.661,0.442 -1.459,0.777 -2.393,1.005 -0.934,0.228 -2.008,0.342 -3.22,0.342 h -7.231 z m 2.652,-2.365 h 4.28 c 1.321,0 2.358,-0.123 3.11,-0.369 0.752,-0.246 1.351,-0.593 1.797,-1.039 0.629,-0.629 1.119,-1.475 1.47,-2.536 0.351,-1.062 0.526,-2.349 0.526,-3.862 0,-2.097 -0.344,-3.708 -1.032,-4.833 -0.688,-1.125 -1.525,-1.88 -2.509,-2.263 -0.71,-0.273 -1.854,-0.41 -3.431,-0.41 h -4.211 v 15.312 z" id="path3548"/>
			<path d="m 181.324,348.316 v -20.043 h 2.653 v 8.231 h 10.418 v -8.231 h 2.653 v 20.043 h -2.653 v -9.447 h -10.418 v 9.447 h -2.653 z" id="path3550"/>
			<path d="m 199.275,348.316 7.698,-20.043 h 2.857 l 8.203,20.043 h -3.022 l -2.337,-6.07 h -8.381 l -2.202,6.07 h -2.816 z m 5.784,-8.231 h 6.795 l -2.092,-5.55 c -0.638,-1.687 -1.112,-3.072 -1.422,-4.156 -0.255,1.285 -0.615,2.561 -1.08,3.828 l -2.201,5.878 z" id="path3552"/>
			<path d="m 220.18,348.316 v -20.043 h 7.56 c 1.331,0 2.347,0.064 3.049,0.191 0.984,0.164 1.809,0.476 2.474,0.937 0.665,0.46 1.201,1.105 1.606,1.934 0.406,0.829 0.609,1.741 0.609,2.735 0,1.704 -0.543,3.147 -1.627,4.327 -1.085,1.18 -3.044,1.77 -5.879,1.77 h -5.14 v 8.148 h -2.652 z m 2.652,-10.514 h 5.181 c 1.714,0 2.93,-0.319 3.65,-0.957 0.72,-0.638 1.08,-1.536 1.08,-2.694 0,-0.839 -0.212,-1.556 -0.635,-2.153 -0.423,-0.597 -0.983,-0.991 -1.675,-1.183 -0.447,-0.118 -1.271,-0.177 -2.474,-0.177 h -5.127 v 7.164 z" id="path3554"/>
		</g><path d="m 459.42957,515.44051 h 131.74647 v 51.11023 H 459.42957 v -51.11023 z" id="rect3699-7-9-5" style="fill: none; stroke: rgb(0, 0, 0); stroke-width: 2.80679; stroke-linecap: round; stroke-linejoin: round;"/></g><g id="g4612"><g transform="matrix(1.40339, 0, 0, 1.40339, 247.089, 66.2349)" id="text3371-7-0-4-8-0">
			<path d="m 180.073,423.849 v -2.351 l 8.49,-0.014 v 7.437 c -1.303,1.04 -2.648,1.82 -4.033,2.345 -1.385,0.523 -2.807,0.786 -4.266,0.786 -1.969,0 -3.758,-0.422 -5.366,-1.265 -1.609,-0.843 -2.824,-2.063 -3.644,-3.657 -0.82,-1.595 -1.231,-3.376 -1.231,-5.346 0,-1.951 0.408,-3.772 1.224,-5.462 0.816,-1.69 1.989,-2.946 3.52,-3.766 1.531,-0.821 3.295,-1.23 5.291,-1.23 1.449,0 2.76,0.234 3.931,0.704 1.171,0.469 2.09,1.123 2.755,1.961 0.665,0.839 1.171,1.933 1.518,3.282 l -2.392,0.657 c -0.301,-1.021 -0.675,-1.823 -1.121,-2.406 -0.447,-0.583 -1.085,-1.051 -1.914,-1.401 -0.829,-0.351 -1.75,-0.526 -2.762,-0.526 -1.212,0 -2.26,0.184 -3.145,0.553 -0.884,0.37 -1.597,0.855 -2.14,1.457 -0.542,0.601 -0.964,1.262 -1.264,1.982 -0.51,1.24 -0.765,2.584 -0.765,4.033 0,1.787 0.308,3.282 0.923,4.484 0.615,1.204 1.511,2.097 2.687,2.68 1.175,0.583 2.424,0.874 3.746,0.874 1.149,0 2.27,-0.22 3.363,-0.662 1.094,-0.443 1.923,-0.914 2.488,-1.415 v -3.733 h -5.893 z" id="path3540"/>
			<path d="m 190.259,431.711 7.697,-20.043 h 2.857 l 8.203,20.043 h -3.021 l -2.338,-6.071 h -8.381 l -2.201,6.071 h -2.816 z m 5.783,-8.23 h 6.795 l -2.092,-5.55 c -0.638,-1.687 -1.112,-3.072 -1.422,-4.157 -0.255,1.286 -0.615,2.562 -1.08,3.829 l -2.201,5.878 z" id="path3542"/>
			<path d="m 211.164,431.711 v -20.043 h 7.56 c 1.33,0 2.346,0.064 3.049,0.192 0.985,0.164 1.809,0.476 2.474,0.937 0.665,0.461 1.201,1.105 1.607,1.935 0.406,0.829 0.608,1.741 0.608,2.735 0,1.703 -0.542,3.147 -1.627,4.327 -1.085,1.18 -3.044,1.77 -5.879,1.77 h -5.141 v 8.148 h -2.651 z m 2.651,-10.513 h 5.182 c 1.713,0 2.93,-0.32 3.65,-0.958 0.72,-0.639 1.081,-1.536 1.081,-2.693 0,-0.839 -0.212,-1.557 -0.636,-2.154 -0.424,-0.597 -0.982,-0.991 -1.675,-1.182 -0.447,-0.12 -1.271,-0.178 -2.474,-0.178 h -5.127 v 7.165 z" id="path3544"/>
		</g><path d="m 470.94583,632.39521 h 108.71256 v 51.27302 H 470.94583 v -51.27302 z" id="rect3699-7-9-5-4-8" style="fill: none; stroke: rgb(0, 0, 0); stroke-width: 2.80679; stroke-linecap: round; stroke-linejoin: round;"/></g><g id="g4593"><g transform="matrix(1.40339, 0, 0, 1.40339, 247.089, 66.2349)" id="text3371-7-0-4-8-5-7-1-1-0">
			<path d="m 166.996,594.227 2.461,-0.328 c 0.283,1.394 0.763,2.399 1.443,3.014 0.678,0.615 1.506,0.923 2.481,0.923 1.157,0 2.135,-0.401 2.932,-1.202 0.797,-0.803 1.196,-1.795 1.196,-2.981 0,-1.13 -0.369,-2.062 -1.107,-2.796 -0.738,-0.733 -1.677,-1.101 -2.817,-1.101 -0.465,0 -1.043,0.092 -1.736,0.274 l 0.273,-2.16 c 0.164,0.018 0.296,0.026 0.397,0.026 1.048,0 1.992,-0.273 2.83,-0.82 0.839,-0.547 1.258,-1.39 1.258,-2.53 0,-0.902 -0.305,-1.649 -0.916,-2.242 -0.61,-0.591 -1.399,-0.888 -2.365,-0.888 -0.957,0 -1.754,0.301 -2.392,0.902 -0.638,0.601 -1.048,1.504 -1.23,2.707 l -2.461,-0.437 c 0.301,-1.649 0.985,-2.928 2.051,-3.836 1.067,-0.906 2.392,-1.36 3.979,-1.36 1.093,0 2.101,0.235 3.021,0.704 0.92,0.469 1.624,1.109 2.112,1.921 0.488,0.811 0.731,1.673 0.731,2.584 0,0.866 -0.232,1.653 -0.697,2.365 -0.465,0.711 -1.153,1.276 -2.064,1.695 1.184,0.274 2.105,0.842 2.761,1.702 0.656,0.861 0.985,1.94 0.985,3.234 0,1.749 -0.638,3.233 -1.914,4.449 -1.276,1.218 -2.889,1.826 -4.84,1.826 -1.759,0 -3.22,-0.525 -4.382,-1.573 -1.162,-1.048 -1.826,-2.405 -1.99,-4.072 l 0,0 z" id="path3530"/>
			<path d="m 182.295,593.502 v -2.474 h 7.56 v 2.474 h -7.56 z" id="path3532"/>
			<path d="m 192.918,599.518 v -20.044 h 7.56 c 1.33,0 2.347,0.064 3.049,0.191 0.984,0.164 1.809,0.477 2.474,0.937 0.665,0.461 1.2,1.105 1.606,1.935 0.406,0.829 0.609,1.741 0.609,2.735 0,1.705 -0.543,3.147 -1.628,4.327 -1.084,1.182 -3.044,1.772 -5.879,1.772 h -5.14 v 8.148 h -2.651 z m 2.653,-10.514 h 5.181 c 1.714,0 2.93,-0.319 3.65,-0.958 0.72,-0.637 1.08,-1.535 1.08,-2.693 0,-0.838 -0.212,-1.556 -0.635,-2.153 -0.424,-0.597 -0.983,-0.991 -1.675,-1.183 -0.447,-0.118 -1.272,-0.178 -2.475,-0.178 h -5.126 v 7.165 z" id="path3534"/>
			<path d="m 221,591.657 v -2.352 l 8.49,-0.014 v 7.437 c -1.303,1.04 -2.648,1.822 -4.033,2.345 -1.385,0.525 -2.807,0.786 -4.266,0.786 -1.969,0 -3.758,-0.422 -5.366,-1.265 -1.608,-0.842 -2.823,-2.061 -3.644,-3.656 -0.82,-1.596 -1.23,-3.378 -1.23,-5.347 0,-1.95 0.408,-3.77 1.224,-5.461 0.816,-1.691 1.989,-2.946 3.52,-3.767 1.531,-0.82 3.295,-1.23 5.291,-1.23 1.449,0 2.76,0.235 3.931,0.704 1.171,0.47 2.09,1.123 2.755,1.962 0.665,0.838 1.171,1.932 1.518,3.282 l -2.392,0.656 c -0.301,-1.02 -0.675,-1.823 -1.122,-2.406 -0.446,-0.583 -1.084,-1.051 -1.914,-1.401 -0.829,-0.351 -1.75,-0.526 -2.762,-0.526 -1.212,0 -2.26,0.185 -3.145,0.554 -0.884,0.369 -1.597,0.854 -2.14,1.456 -0.542,0.601 -0.964,1.262 -1.264,1.983 -0.511,1.239 -0.765,2.583 -0.765,4.033 0,1.786 0.308,3.28 0.923,4.484 0.615,1.202 1.511,2.096 2.687,2.679 1.175,0.583 2.424,0.875 3.746,0.875 1.148,0 2.27,-0.221 3.363,-0.662 1.094,-0.443 1.923,-0.914 2.488,-1.415 v -3.733 H 221 z" id="path3536"/>
		</g><path d="m 468.75372,867.91991 h 113.09817 v 51.24074 H 468.75372 v -51.24074 z" id="rect3699-7-9-5-4-3-3-4" style="fill: none; stroke: rgb(0, 0, 0); stroke-width: 2.80679; stroke-linecap: round; stroke-linejoin: round;"/></g><g id="g4585"><g transform="matrix(1.40339, 0, 0, 1.40339, 247.089, 66.2349)" id="text3371-7-0-4-8-5-7-1-2-8-6">
			<path d="m 180.094,681.507 v 2.366 h -13.248 c -0.018,-0.593 0.077,-1.162 0.287,-1.709 0.337,-0.903 0.877,-1.791 1.62,-2.667 0.743,-0.875 1.816,-1.887 3.22,-3.035 2.178,-1.786 3.65,-3.201 4.416,-4.245 0.765,-1.044 1.149,-2.031 1.149,-2.96 0,-0.976 -0.349,-1.798 -1.047,-2.467 -0.697,-0.671 -1.606,-1.005 -2.727,-1.005 -1.185,0 -2.133,0.355 -2.844,1.066 -0.711,0.711 -1.071,1.695 -1.08,2.953 l -2.529,-0.26 c 0.173,-1.886 0.825,-3.323 1.955,-4.313 1.13,-0.99 2.648,-1.484 4.552,-1.484 1.923,0 3.445,0.533 4.567,1.599 1.121,1.067 1.681,2.388 1.681,3.965 0,0.803 -0.164,1.591 -0.492,2.366 -0.328,0.775 -0.873,1.591 -1.634,2.447 -0.761,0.857 -2.026,2.033 -3.794,3.528 -1.477,1.239 -2.424,2.081 -2.844,2.522 -0.419,0.443 -0.765,0.887 -1.039,1.333 h 9.831 z" id="path3520"/>
			<path d="m 182.473,677.857 v -2.474 h 7.56 v 2.474 h -7.56 z" id="path3522"/>
			<path d="M 193.096,683.873 V 663.83 h 7.561 c 1.33,0 2.346,0.064 3.049,0.192 0.985,0.163 1.809,0.476 2.474,0.935 0.665,0.461 1.201,1.106 1.607,1.936 0.405,0.829 0.608,1.74 0.608,2.733 0,1.705 -0.542,3.147 -1.627,4.327 -1.085,1.182 -3.044,1.772 -5.879,1.772 h -5.141 v 8.148 h -2.652 z m 2.652,-10.514 h 5.181 c 1.714,0 2.931,-0.319 3.65,-0.957 0.72,-0.637 1.08,-1.535 1.08,-2.693 0,-0.838 -0.212,-1.556 -0.635,-2.153 -0.424,-0.597 -0.982,-0.991 -1.675,-1.183 -0.447,-0.118 -1.271,-0.177 -2.474,-0.177 h -5.127 v 7.163 z" id="path3524"/>
			<path d="m 221.178,676.011 v -2.352 l 8.491,-0.014 v 7.439 c -1.304,1.038 -2.648,1.82 -4.033,2.344 -1.386,0.525 -2.808,0.786 -4.266,0.786 -1.969,0 -3.758,-0.422 -5.366,-1.264 -1.609,-0.843 -2.823,-2.063 -3.643,-3.657 -0.82,-1.595 -1.23,-3.378 -1.23,-5.346 0,-1.951 0.408,-3.772 1.223,-5.463 0.816,-1.691 1.989,-2.946 3.52,-3.766 1.532,-0.821 3.295,-1.232 5.291,-1.232 1.449,0 2.759,0.235 3.93,0.704 1.171,0.47 2.09,1.125 2.755,1.962 0.665,0.839 1.172,1.932 1.518,3.282 l -2.392,0.656 c -0.301,-1.02 -0.674,-1.823 -1.121,-2.406 -0.447,-0.583 -1.085,-1.049 -1.914,-1.401 -0.829,-0.351 -1.75,-0.526 -2.762,-0.526 -1.212,0 -2.26,0.185 -3.145,0.554 -0.884,0.369 -1.597,0.854 -2.139,1.456 -0.543,0.601 -0.964,1.262 -1.265,1.983 -0.51,1.239 -0.765,2.583 -0.765,4.033 0,1.786 0.308,3.28 0.923,4.484 0.615,1.202 1.511,2.096 2.687,2.679 1.176,0.583 2.424,0.875 3.746,0.875 1.149,0 2.27,-0.221 3.364,-0.662 1.093,-0.443 1.923,-0.914 2.488,-1.415 v -3.733 h -5.895 z" id="path3526"/>
		</g><path d="m 468.75372,986.29343 h 113.09817 v 51.24217 H 468.75372 v -51.24217 z" id="rect3699-7-9-5-4-3-1-1-0" style="fill: none; stroke: rgb(0, 0, 0); stroke-width: 2.80679; stroke-linecap: round; stroke-linejoin: round;"/></g><g id="g4578"><g transform="matrix(1.40339, 0, 0, 1.40339, 247.089, 66.2349)" id="text3371-7-0-4-8-5-7-1-2-6-42-0">
			<path d="m 171.891,768.221 v -20.043 h 7.56 c 1.33,0 2.347,0.064 3.049,0.192 0.984,0.163 1.809,0.476 2.474,0.935 0.665,0.461 1.2,1.106 1.606,1.936 0.406,0.829 0.609,1.74 0.609,2.733 0,1.705 -0.543,3.147 -1.627,4.328 -1.085,1.18 -3.044,1.77 -5.879,1.77 h -5.14 v 8.148 h -2.652 z m 2.652,-10.515 h 5.181 c 1.714,0 2.93,-0.319 3.65,-0.956 0.72,-0.639 1.08,-1.536 1.08,-2.694 0,-0.838 -0.212,-1.556 -0.635,-2.153 -0.424,-0.597 -0.983,-0.991 -1.675,-1.183 -0.447,-0.118 -1.272,-0.177 -2.475,-0.177 h -5.126 v 7.163 z" id="path3512"/>
			<path d="m 190.649,768.221 v -20.043 h 14.492 v 2.366 h -11.84 v 6.137 h 11.088 v 2.352 h -11.088 v 6.822 h 12.305 v 2.366 h -14.957 z" id="path3514"/>
			<path d="m 209.297,768.221 v -20.043 h 7.56 c 1.33,0 2.347,0.064 3.049,0.192 0.985,0.163 1.809,0.476 2.474,0.935 0.666,0.461 1.201,1.106 1.607,1.936 0.406,0.829 0.608,1.74 0.608,2.733 0,1.705 -0.542,3.147 -1.627,4.328 -1.084,1.18 -3.044,1.77 -5.879,1.77 h -5.141 v 8.148 h -2.651 z m 2.652,-10.515 h 5.182 c 1.713,0 2.93,-0.319 3.65,-0.956 0.72,-0.639 1.08,-1.536 1.08,-2.694 0,-0.838 -0.212,-1.556 -0.636,-2.153 -0.424,-0.597 -0.982,-0.991 -1.675,-1.183 -0.447,-0.118 -1.271,-0.177 -2.474,-0.177 h -5.127 v 7.163 z" id="path3516"/>
		</g><path d="m 470.94583,1104.6501 h 108.71256 v 51.273 H 470.94583 v -51.273 z" id="rect3699-7-9-5-4-2-9-6" style="fill: none; stroke: rgb(0, 0, 0); stroke-width: 2.80679; stroke-linecap: round; stroke-linejoin: round;"/></g><g id="g4571"><g transform="matrix(1.40339, 0, 0, 1.40339, 247.089, 66.2349)" id="text3371-7-0-4-8-5-7-1-2-6-4-7-3">
			<path d="m 178.119,847.855 v -20.044 h 7.56 c 1.33,0 2.346,0.064 3.049,0.191 0.985,0.164 1.809,0.477 2.474,0.937 0.665,0.461 1.201,1.105 1.607,1.935 0.406,0.829 0.608,1.741 0.608,2.735 0,1.705 -0.542,3.147 -1.627,4.327 -1.085,1.182 -3.044,1.772 -5.879,1.772 h -5.141 v 8.148 h -2.651 z m 2.652,-10.515 h 5.182 c 1.713,0 2.93,-0.319 3.65,-0.958 0.72,-0.637 1.081,-1.535 1.081,-2.693 0,-0.838 -0.212,-1.556 -0.636,-2.153 -0.424,-0.597 -0.982,-0.991 -1.675,-1.183 -0.447,-0.118 -1.271,-0.178 -2.474,-0.178 h -5.127 v 7.165 z" id="path3504"/>
			<path d="m 196.397,853.445 -0.273,-2.31 c 0.538,0.146 1.008,0.219 1.408,0.219 0.547,0 0.985,-0.091 1.312,-0.273 0.328,-0.182 0.597,-0.437 0.806,-0.765 0.155,-0.246 0.406,-0.857 0.752,-1.833 0.046,-0.136 0.118,-0.337 0.219,-0.601 l -5.51,-14.546 h 2.653 l 3.021,8.407 c 0.392,1.067 0.743,2.188 1.053,3.364 0.283,-1.13 0.62,-2.234 1.012,-3.308 l 3.104,-8.463 h 2.461 l -5.524,14.765 c -0.593,1.595 -1.053,2.694 -1.381,3.296 -0.438,0.811 -0.939,1.406 -1.504,1.784 -0.565,0.379 -1.239,0.568 -2.024,0.568 -0.473,-0.002 -1.001,-0.102 -1.585,-0.304 z" id="path3506"/>
			<path d="m 210.48,847.855 v -14.52 h 2.215 v 2.2 c 0.565,-1.03 1.087,-1.709 1.566,-2.036 0.478,-0.328 1.005,-0.493 1.579,-0.493 0.829,0 1.673,0.264 2.529,0.793 l -0.848,2.282 c -0.602,-0.355 -1.203,-0.533 -1.805,-0.533 -0.538,0 -1.021,0.161 -1.449,0.486 -0.429,0.323 -0.734,0.772 -0.916,1.347 -0.273,0.874 -0.41,1.831 -0.41,2.871 v 7.602 h -2.461 z" id="path3508"/>
		</g><path d="m 470.94583,1220.5424 h 108.71256 v 51.2731 H 470.94583 v -51.2731 z" id="rect3699-7-9-5-4-2-3-8-9" style="fill: none; stroke: rgb(0, 0, 0); stroke-width: 2.80679; stroke-linecap: round; stroke-linejoin: round;"/></g><g id="g4601"><g transform="matrix(1.40339, 0, 0, 1.40339, 247.089, 66.2349)" id="text3371-7-0-4-8-5-7-4-4">
			<path d="m 155.847,513.004 h -2.461 v -15.682 c -0.592,0.565 -1.369,1.13 -2.331,1.695 -0.962,0.565 -1.825,0.99 -2.591,1.272 v -2.378 c 1.376,-0.647 2.58,-1.432 3.609,-2.352 1.03,-0.92 1.759,-1.813 2.188,-2.679 h 1.586 v 20.124 z" id="path3488"/>
			<path d="m 163.49,513.004 v -2.803 h 2.802 v 2.803 c 0,1.03 -0.182,1.862 -0.546,2.495 -0.365,0.633 -0.944,1.123 -1.737,1.47 l -0.683,-1.052 c 0.519,-0.228 0.903,-0.564 1.148,-1.005 0.246,-0.443 0.383,-1.079 0.411,-1.908 h -1.395 z" id="path3490"/>
			<path d="m 169.942,507.713 2.461,-0.327 c 0.283,1.395 0.763,2.399 1.443,3.014 0.678,0.615 1.506,0.923 2.481,0.923 1.157,0 2.135,-0.401 2.932,-1.204 0.797,-0.802 1.196,-1.795 1.196,-2.98 0,-1.13 -0.369,-2.063 -1.107,-2.796 -0.738,-0.733 -1.677,-1.101 -2.817,-1.101 -0.465,0 -1.043,0.09 -1.736,0.273 l 0.273,-2.16 c 0.164,0.018 0.296,0.028 0.397,0.028 1.048,0 1.992,-0.274 2.83,-0.821 0.839,-0.547 1.258,-1.389 1.258,-2.529 0,-0.902 -0.305,-1.649 -0.916,-2.242 -0.61,-0.593 -1.399,-0.889 -2.365,-0.889 -0.957,0 -1.754,0.302 -2.392,0.903 -0.638,0.601 -1.048,1.503 -1.23,2.707 l -2.461,-0.437 c 0.301,-1.651 0.985,-2.928 2.051,-3.836 1.067,-0.907 2.392,-1.36 3.979,-1.361 1.093,0.001 2.101,0.235 3.021,0.704 0.921,0.47 1.624,1.111 2.112,1.922 0.488,0.811 0.731,1.671 0.731,2.583 0,0.867 -0.232,1.655 -0.697,2.366 -0.465,0.711 -1.153,1.276 -2.064,1.695 1.184,0.273 2.105,0.841 2.761,1.702 0.656,0.861 0.985,1.939 0.985,3.233 0,1.751 -0.638,3.234 -1.914,4.451 -1.276,1.216 -2.889,1.825 -4.84,1.825 -1.759,0 -3.22,-0.523 -4.382,-1.571 -1.162,-1.048 -1.825,-2.407 -1.99,-4.075 l 0,0 z" id="path3492"/>
			<path d="m 185.241,506.989 v -2.474 h 7.56 v 2.474 h -7.56 z" id="path3494"/>
			<path d="m 197.82,513.004 h -2.283 V 492.96 h 2.461 v 7.151 c 1.039,-1.303 2.365,-1.954 3.979,-1.955 0.893,0 1.738,0.181 2.536,0.541 0.797,0.359 1.454,0.866 1.969,1.517 0.515,0.651 0.919,1.438 1.21,2.359 0.292,0.92 0.438,1.904 0.438,2.952 0,2.488 -0.615,4.412 -1.846,5.77 -1.23,1.358 -2.707,2.037 -4.429,2.037 -1.714,0 -3.058,-0.715 -4.033,-2.146 v 1.818 z m -0.028,-7.369 c 0,1.741 0.237,2.999 0.711,3.773 0.775,1.268 1.823,1.901 3.145,1.901 1.075,0 2.005,-0.468 2.789,-1.401 0.784,-0.933 1.176,-2.327 1.176,-4.177 0,-1.896 -0.376,-3.296 -1.128,-4.197 -0.752,-0.902 -1.661,-1.354 -2.728,-1.354 -1.076,0 -2.005,0.468 -2.789,1.401 -0.784,0.935 -1.176,2.286 -1.176,4.054 z" id="path3496"/>
			<path d="M 211.45,513.004 V 492.96 h 7.56 c 1.331,0 2.347,0.064 3.049,0.192 0.984,0.164 1.809,0.476 2.474,0.937 0.665,0.461 1.201,1.105 1.606,1.934 0.406,0.829 0.609,1.741 0.609,2.735 0,1.703 -0.543,3.147 -1.627,4.327 -1.085,1.18 -3.044,1.77 -5.879,1.77 h -5.14 v 8.148 h -2.652 z m 2.653,-10.513 h 5.181 c 1.714,0 2.93,-0.32 3.65,-0.957 0.72,-0.637 1.08,-1.536 1.08,-2.693 0,-0.839 -0.212,-1.557 -0.635,-2.154 -0.424,-0.597 -0.983,-0.991 -1.675,-1.182 -0.447,-0.118 -1.271,-0.178 -2.474,-0.178 h -5.127 v 7.164 z" id="path3498"/>
			<path d="m 239.532,505.142 v -2.351 l 8.49,-0.014 v 7.437 c -1.303,1.04 -2.648,1.82 -4.033,2.345 -1.385,0.523 -2.807,0.786 -4.266,0.786 -1.969,0 -3.758,-0.422 -5.366,-1.265 -1.609,-0.843 -2.824,-2.063 -3.643,-3.657 -0.82,-1.595 -1.231,-3.376 -1.231,-5.346 0,-1.95 0.408,-3.772 1.224,-5.462 0.816,-1.69 1.989,-2.946 3.52,-3.766 1.531,-0.82 3.295,-1.23 5.291,-1.23 1.449,0 2.759,0.235 3.93,0.704 1.171,0.469 2.09,1.123 2.755,1.961 0.665,0.839 1.171,1.933 1.518,3.282 l -2.392,0.657 c -0.301,-1.022 -0.675,-1.823 -1.121,-2.406 -0.447,-0.583 -1.085,-1.051 -1.914,-1.401 -0.829,-0.351 -1.75,-0.526 -2.762,-0.526 -1.212,0 -2.26,0.184 -3.145,0.552 -0.884,0.37 -1.597,0.855 -2.14,1.457 -0.542,0.601 -0.964,1.262 -1.264,1.982 -0.511,1.24 -0.765,2.584 -0.765,4.033 0,1.787 0.308,3.282 0.923,4.484 0.615,1.204 1.511,2.097 2.687,2.68 1.175,0.583 2.424,0.875 3.746,0.875 1.148,0 2.27,-0.221 3.364,-0.664 1.093,-0.443 1.923,-0.913 2.488,-1.415 v -3.733 h -5.894 z" id="path3500"/>
		</g><path d="m 444.61113,749.19974 h 161.38196 v 50.92217 H 444.61113 v -50.92217 z" id="rect3699-7-9-5-4-2-3-3-6-6" style="fill: none; stroke: rgb(0, 0, 0); stroke-width: 2.80679; stroke-linecap: round; stroke-linejoin: round;"/></g><g id="g4463"><path d="M 410.62933,180.67196 V 236.1313" id="rect4388_1_" style="fill: none; stroke: rgb(0, 0, 0); stroke-width: 2.80623; stroke-linecap: round; stroke-linejoin: round;"/><path d="m 416.9011,226.18685 -5.96022,16.4941 -6.70261,-15.96221 6.45842,3.03694 6.20441,-3.56883 z" id="path2556-1-6-4" style="stroke: rgb(0, 0, 0); stroke-width: 2.71739; stroke-linecap: round; stroke-miterlimit: 10;"/></g><g id="g4459"><path d="M 410.62933,62.976268 V 118.43562" id="rect4388-5_2_" style="fill: none; stroke: rgb(0, 0, 0); stroke-width: 2.806; stroke-linecap: round; stroke-linejoin: round; stroke-miterlimit: 4; stroke-dasharray: none;"/><path d="m 416.9011,108.49256 -5.96022,16.4927 -6.70261,-15.96221 6.45842,3.03694 6.20441,-3.56743 z" id="path2556-1-6-4-4" style="stroke: rgb(0, 0, 0); stroke-width: 2.71739; stroke-linecap: round; stroke-miterlimit: 10;"/></g><g id="g4467"><path d="m 410.62933,299.27003 v 55.45934" id="rect4388-0_1_" style="fill: none; stroke: rgb(0, 0, 0); stroke-width: 2.80623; stroke-linecap: round; stroke-linejoin: round;"/><path d="m 416.9011,344.78492 -5.96022,16.4941 -6.70261,-15.96221 6.45842,3.03694 6.20441,-3.56883 0,0 z" id="path2556-1-6-4-9" style="stroke: rgb(0, 0, 0); stroke-width: 2.71739; stroke-linecap: round; stroke-miterlimit: 10;"/></g><g id="g4479"><path d="m 525.36105,566.85528 v 55.45934" id="rect4388-0-3_1_" style="fill: none; stroke: rgb(0, 0, 0); stroke-width: 2.80623; stroke-linecap: round; stroke-linejoin: round;"/><path d="m 531.63422,612.37017 -5.96021,16.4941 -6.70262,-15.96221 6.45842,3.03694 6.20441,-3.56883 z" id="path2556-1-6-4-9-7" style="stroke: rgb(0, 0, 0); stroke-width: 2.71739; stroke-linecap: round; stroke-miterlimit: 10;"/></g><g id="g4487"><path d="M 525.36105,684.21275 V 739.6735" id="rect4388-0-3-6_1_" style="fill: none; stroke: rgb(0, 0, 0); stroke-width: 2.80623; stroke-linecap: round; stroke-linejoin: round;"/><path d="m 531.63422,729.72904 -5.96021,16.4941 -6.70262,-15.96361 6.45842,3.03694 6.20441,-3.56743 z" id="path2556-1-6-4-9-7-0" style="stroke: rgb(0, 0, 0); stroke-width: 2.71739; stroke-linecap: round; stroke-miterlimit: 10;"/></g><g id="g4491"><path d="m 525.36105,801.98983 v 55.45935" id="rect4388-0-3-5_1_" style="fill: none; stroke: rgb(0, 0, 0); stroke-width: 2.80623; stroke-linecap: round; stroke-linejoin: round;"/><path d="m 531.63422,847.50613 -5.96021,16.49269 -6.70262,-15.96361 6.45842,3.03694 6.20441,-3.56883 v 0.003 z" id="path2556-1-6-4-9-7-7" style="stroke: rgb(0, 0, 0); stroke-width: 2.71739; stroke-linecap: round; stroke-miterlimit: 10;"/></g><g id="g4495"><path d="m 525.36105,921.05102 v 55.45935" id="rect4388-0-3-1_1_" style="fill: none; stroke: rgb(0, 0, 0); stroke-width: 2.80623; stroke-linecap: round; stroke-linejoin: round;"/><path d="m 531.63422,966.56732 -5.96021,16.4941 -6.70262,-15.96222 6.45842,3.03695 6.20441,-3.56883 0,0 z" id="path2556-1-6-4-9-7-2" style="stroke: rgb(0, 0, 0); stroke-width: 2.71739; stroke-linecap: round; stroke-miterlimit: 10;"/></g><g id="g4499"><path d="m 525.36105,1038.7369 v 55.4593" id="rect4388-0-3-14_1_" style="fill: none; stroke: rgb(0, 0, 0); stroke-width: 2.80623; stroke-linecap: round; stroke-linejoin: round;"/><path d="m 531.63422,1084.2518 -5.96021,16.4927 -6.70262,-15.9622 6.45842,3.0383 6.20441,-3.5688 0,0 z" id="path2556-1-6-4-9-7-6" style="stroke: rgb(0, 0, 0); stroke-width: 2.71739; stroke-linecap: round; stroke-miterlimit: 10;"/></g><g id="g4503"><path d="m 525.36105,1155.9147 v 55.4594" id="rect4388-0-3-7_1_" style="fill: none; stroke: rgb(0, 0, 0); stroke-width: 2.80623; stroke-linecap: round; stroke-linejoin: round;"/><path d="m 531.63422,1201.4296 -5.96021,16.4941 -6.70262,-15.9622 6.45842,3.0369 6.20441,-3.5688 z" id="path2556-1-6-4-9-7-77" style="stroke: rgb(0, 0, 0); stroke-width: 2.71739; stroke-linecap: round; stroke-miterlimit: 10;"/></g><g id="g4523"><g transform="matrix(1.40339, 0, 0, 1.40339, 247.089, 66.2349)" id="text3371-7-0-4-8-0-9">
			<path d="m 15.687,423.429 v -2.352 l 8.49,-0.014 v 7.437 c -1.303,1.04 -2.648,1.82 -4.033,2.345 -1.385,0.523 -2.808,0.786 -4.266,0.786 -1.969,0 -3.758,-0.422 -5.366,-1.265 -1.608,-0.843 -2.823,-2.063 -3.644,-3.657 -0.821,-1.594 -1.23,-3.376 -1.23,-5.346 0,-1.95 0.408,-3.772 1.223,-5.461 0.816,-1.691 1.989,-2.946 3.52,-3.767 1.532,-0.82 3.295,-1.23 5.291,-1.23 1.449,0 2.759,0.235 3.931,0.704 1.171,0.469 2.089,1.123 2.755,1.962 0.665,0.838 1.171,1.932 1.517,3.28 l -2.392,0.657 c -0.301,-1.021 -0.674,-1.823 -1.121,-2.406 -0.447,-0.583 -1.085,-1.051 -1.914,-1.401 -0.829,-0.351 -1.749,-0.526 -2.761,-0.526 -1.212,0 -2.261,0.184 -3.145,0.554 -0.884,0.369 -1.598,0.855 -2.14,1.456 -0.543,0.601 -0.964,1.262 -1.265,1.982 -0.51,1.24 -0.765,2.584 -0.765,4.033 0,1.787 0.308,3.282 0.923,4.484 0.616,1.204 1.511,2.097 2.687,2.68 1.176,0.583 2.424,0.875 3.746,0.875 1.148,0 2.269,-0.221 3.363,-0.664 1.094,-0.441 1.923,-0.913 2.488,-1.415 v -3.733 l -5.892,0.002 z" id="path3480"/>
			<path d="m 25.872,431.289 7.698,-20.042 h 2.857 l 8.203,20.042 h -3.021 l -2.338,-6.071 h -8.38 l -2.202,6.071 h -2.817 z m 5.783,-8.23 h 6.794 l -2.091,-5.55 c -0.638,-1.687 -1.112,-3.072 -1.422,-4.157 -0.255,1.286 -0.615,2.562 -1.08,3.829 l -2.201,5.878 z" id="path3482"/>
			<path d="m 46.776,431.289 v -20.042 h 7.561 c 1.33,0 2.347,0.063 3.049,0.191 0.985,0.164 1.809,0.476 2.475,0.937 0.665,0.461 1.2,1.105 1.606,1.935 0.406,0.83 0.608,1.741 0.608,2.735 0,1.705 -0.542,3.147 -1.627,4.327 -1.084,1.18 -3.044,1.77 -5.879,1.77 h -5.141 v 8.148 h -2.652 z m 2.652,-10.513 h 5.182 c 1.713,0 2.93,-0.32 3.65,-0.958 0.72,-0.637 1.08,-1.535 1.08,-2.693 0,-0.839 -0.212,-1.557 -0.636,-2.153 -0.424,-0.597 -0.982,-0.992 -1.674,-1.183 -0.447,-0.118 -1.272,-0.178 -2.475,-0.178 h -5.127 v 7.165 z" id="path3484"/>
		</g><path d="M 240.246,631.80297 H 348.95856 V 683.076 H 240.246 v -51.27303 z" id="rect3699-7-9-5-4-8-1" style="fill: none; stroke: rgb(0, 0, 0); stroke-width: 2.80679; stroke-linecap: round; stroke-linejoin: round;"/></g><g id="g4541"><g transform="matrix(1.40339, 0, 0, 1.40339, 247.089, 66.2349)" id="text3371-7-0-4-8-5-7-1-1-0-2">
			<path d="m 2.61,593.805 2.461,-0.328 c 0.283,1.394 0.763,2.399 1.443,3.014 0.679,0.615 1.507,0.923 2.481,0.923 1.158,0 2.135,-0.401 2.933,-1.202 0.797,-0.802 1.196,-1.795 1.196,-2.981 0,-1.13 -0.369,-2.061 -1.108,-2.796 -0.738,-0.733 -1.677,-1.099 -2.816,-1.099 -0.465,0 -1.044,0.09 -1.736,0.273 l 0.273,-2.16 c 0.164,0.018 0.296,0.028 0.396,0.026 1.049,0 1.992,-0.273 2.83,-0.82 0.838,-0.547 1.258,-1.39 1.258,-2.529 0,-0.903 -0.305,-1.651 -0.916,-2.242 -0.611,-0.593 -1.399,-0.889 -2.365,-0.889 -0.958,0 -1.755,0.301 -2.393,0.902 -0.638,0.603 -1.048,1.504 -1.23,2.707 l -2.461,-0.437 c 0.301,-1.649 0.985,-2.928 2.051,-3.834 1.066,-0.907 2.392,-1.361 3.978,-1.361 1.094,0 2.101,0.235 3.021,0.704 0.921,0.469 1.625,1.109 2.113,1.921 0.487,0.811 0.731,1.673 0.731,2.584 0,0.866 -0.232,1.655 -0.697,2.365 -0.465,0.711 -1.153,1.276 -2.065,1.696 1.185,0.273 2.106,0.841 2.762,1.702 0.656,0.861 0.984,1.939 0.984,3.233 0,1.749 -0.637,3.233 -1.914,4.451 -1.276,1.216 -2.889,1.825 -4.84,1.825 -1.759,0 -3.22,-0.525 -4.382,-1.573 -1.162,-1.049 -1.824,-2.407 -1.988,-4.075 l 0,0 z" id="path3470"/>
			<path d="m 17.908,593.08 v -2.474 h 7.561 v 2.474 h -7.561 z" id="path3472"/>
			<path d="m 28.532,599.097 v -20.043 h 7.56 c 1.33,0 2.346,0.064 3.049,0.192 0.984,0.163 1.809,0.476 2.474,0.935 0.665,0.461 1.201,1.106 1.607,1.936 0.405,0.829 0.608,1.74 0.608,2.733 0,1.705 -0.543,3.147 -1.627,4.328 -1.085,1.18 -3.044,1.77 -5.879,1.77 h -5.141 v 8.148 h -2.651 z m 2.652,-10.515 h 5.182 c 1.713,0 2.93,-0.319 3.65,-0.956 0.72,-0.639 1.08,-1.536 1.08,-2.694 0,-0.838 -0.212,-1.556 -0.635,-2.153 -0.424,-0.597 -0.983,-0.991 -1.675,-1.183 -0.447,-0.118 -1.271,-0.177 -2.474,-0.177 h -5.127 v 7.163 z" id="path3474"/>
			<path d="m 56.613,591.235 v -2.352 l 8.49,-0.014 v 7.439 c -1.303,1.038 -2.648,1.82 -4.033,2.344 -1.385,0.525 -2.807,0.786 -4.266,0.786 -1.969,0 -3.757,-0.422 -5.366,-1.264 -1.609,-0.843 -2.824,-2.062 -3.644,-3.657 -0.82,-1.595 -1.231,-3.378 -1.231,-5.346 0,-1.951 0.408,-3.772 1.224,-5.462 0.816,-1.691 1.989,-2.946 3.52,-3.766 1.532,-0.821 3.295,-1.232 5.291,-1.232 1.449,0 2.759,0.235 3.93,0.704 1.171,0.47 2.09,1.125 2.755,1.962 0.665,0.839 1.171,1.933 1.518,3.282 l -2.392,0.656 c -0.301,-1.02 -0.674,-1.822 -1.121,-2.406 -0.447,-0.583 -1.085,-1.049 -1.914,-1.401 -0.829,-0.351 -1.75,-0.526 -2.762,-0.526 -1.212,0 -2.26,0.185 -3.145,0.554 -0.884,0.369 -1.597,0.855 -2.14,1.456 -0.542,0.603 -0.964,1.262 -1.264,1.983 -0.51,1.239 -0.765,2.583 -0.765,4.033 0,1.786 0.308,3.28 0.923,4.484 0.615,1.202 1.511,2.096 2.687,2.679 1.176,0.585 2.424,0.875 3.746,0.875 1.149,0 2.27,-0.221 3.363,-0.662 1.094,-0.443 1.923,-0.914 2.488,-1.415 v -3.733 h -5.892 z" id="path3476"/>
		</g><path d="m 238.0539,867.32908 h 113.09816 v 51.24214 H 238.0539 v -51.24214 l 0,0 z" id="rect3699-7-9-5-4-3-3-4-6" style="fill: none; stroke: rgb(0, 0, 0); stroke-width: 2.80679; stroke-linecap: round; stroke-linejoin: round;"/></g><g id="g4549"><g transform="matrix(1.40339, 0, 0, 1.40339, 247.089, 66.2349)" id="text3371-7-0-4-8-5-7-1-2-8-6-3">
			<path d="m 15.707,681.085 v 2.366 H 2.459 c -0.019,-0.593 0.077,-1.162 0.287,-1.709 0.337,-0.903 0.877,-1.791 1.62,-2.667 0.743,-0.875 1.816,-1.887 3.22,-3.035 2.179,-1.786 3.65,-3.201 4.417,-4.245 0.765,-1.044 1.148,-2.031 1.148,-2.96 0,-0.976 -0.349,-1.798 -1.046,-2.467 -0.697,-0.669 -1.607,-1.005 -2.728,-1.005 -1.185,0 -2.133,0.355 -2.843,1.066 -0.711,0.711 -1.071,1.695 -1.081,2.953 l -2.529,-0.26 c 0.173,-1.886 0.825,-3.323 1.955,-4.313 1.13,-0.988 2.648,-1.484 4.553,-1.484 1.923,0 3.445,0.533 4.566,1.6 1.121,1.066 1.682,2.387 1.682,3.964 0,0.803 -0.164,1.591 -0.493,2.366 -0.328,0.775 -0.873,1.591 -1.633,2.447 -0.761,0.857 -2.026,2.033 -3.795,3.528 -1.477,1.24 -2.424,2.081 -2.843,2.522 -0.42,0.443 -0.766,0.887 -1.04,1.333 h 9.831 z" id="path3460"/>
			<path d="m 18.086,677.435 v -2.474 h 7.56 v 2.474 h -7.56 z" id="path3462"/>
			<path d="m 28.709,683.451 v -20.043 h 7.56 c 1.33,0 2.347,0.064 3.049,0.192 0.985,0.164 1.809,0.476 2.474,0.937 0.665,0.459 1.201,1.105 1.607,1.935 0.406,0.83 0.608,1.741 0.608,2.733 0,1.705 -0.542,3.148 -1.627,4.328 -1.085,1.18 -3.044,1.77 -5.879,1.77 H 31.36 v 8.148 h -2.651 z m 2.652,-10.514 h 5.182 c 1.713,0 2.93,-0.319 3.65,-0.956 0.72,-0.639 1.08,-1.536 1.08,-2.694 0,-0.838 -0.212,-1.556 -0.636,-2.153 -0.424,-0.597 -0.982,-0.991 -1.675,-1.183 -0.447,-0.118 -1.271,-0.177 -2.474,-0.177 h -5.127 v 7.163 z" id="path3464"/>
			<path d="m 56.791,675.59 v -2.352 l 8.49,-0.013 v 7.437 c -1.303,1.038 -2.648,1.82 -4.033,2.344 -1.385,0.525 -2.808,0.786 -4.266,0.786 -1.969,0 -3.758,-0.422 -5.366,-1.264 -1.609,-0.843 -2.823,-2.063 -3.644,-3.657 -0.82,-1.595 -1.23,-3.378 -1.23,-5.346 0,-1.951 0.408,-3.771 1.223,-5.462 0.816,-1.691 1.989,-2.946 3.52,-3.766 1.532,-0.821 3.295,-1.23 5.291,-1.23 1.449,0 2.76,0.234 3.931,0.703 1.171,0.47 2.089,1.124 2.755,1.962 0.665,0.839 1.171,1.933 1.517,3.282 l -2.392,0.656 c -0.301,-1.02 -0.674,-1.822 -1.121,-2.406 -0.447,-0.583 -1.085,-1.049 -1.914,-1.401 -0.829,-0.351 -1.749,-0.526 -2.761,-0.526 -1.212,0 -2.261,0.185 -3.145,0.554 -0.884,0.369 -1.598,0.854 -2.14,1.456 -0.543,0.603 -0.964,1.262 -1.265,1.983 -0.51,1.239 -0.765,2.584 -0.765,4.033 0,1.786 0.308,3.282 0.923,4.484 0.616,1.204 1.511,2.096 2.687,2.679 1.176,0.585 2.424,0.875 3.746,0.875 1.148,0 2.269,-0.221 3.363,-0.662 1.094,-0.443 1.923,-0.914 2.488,-1.415 v -3.733 h -5.892 z" id="path3466"/>
		</g><path d="m 238.0539,985.7012 h 113.09816 v 51.2421 H 238.0539 v -51.2421 z" id="rect3699-7-9-5-4-3-1-1-0-0" style="fill: none; stroke: rgb(0, 0, 0); stroke-width: 2.80679; stroke-linecap: round; stroke-linejoin: round;"/></g><g id="g4557"><g transform="matrix(1.40339, 0, 0, 1.40339, 247.089, 66.2349)" id="text3371-7-0-4-8-5-7-1-2-6-42-0-2">
			<path d="m 7.504,767.799 v -20.043 h 7.56 c 1.33,0 2.346,0.064 3.049,0.192 0.985,0.164 1.809,0.476 2.474,0.937 0.665,0.459 1.201,1.105 1.607,1.935 0.406,0.83 0.608,1.741 0.608,2.733 0,1.705 -0.542,3.148 -1.627,4.328 -1.085,1.18 -3.044,1.77 -5.879,1.77 h -5.141 v 8.148 H 7.504 z m 2.652,-10.514 h 5.182 c 1.713,0 2.93,-0.319 3.65,-0.956 0.72,-0.639 1.081,-1.536 1.081,-2.694 0,-0.838 -0.212,-1.556 -0.636,-2.153 -0.424,-0.597 -0.982,-0.991 -1.675,-1.183 -0.447,-0.118 -1.271,-0.177 -2.474,-0.177 h -5.127 v 7.163 z" id="path3452"/>
			<path d="m 26.262,767.799 v -20.043 h 14.492 v 2.366 h -11.84 v 6.139 h 11.087 v 2.351 H 28.914 v 6.822 H 41.218 V 767.8 H 26.262 z" id="path3454"/>
			<path d="m 44.91,767.799 v -20.043 h 7.56 c 1.33,0 2.347,0.064 3.049,0.192 0.985,0.164 1.809,0.476 2.475,0.937 0.665,0.459 1.2,1.105 1.606,1.935 0.406,0.83 0.609,1.741 0.609,2.733 0,1.705 -0.543,3.148 -1.628,4.328 -1.084,1.18 -3.044,1.77 -5.879,1.77 h -5.14 v 8.148 H 44.91 z m 2.653,-10.514 h 5.181 c 1.713,0 2.93,-0.319 3.65,-0.956 0.72,-0.639 1.08,-1.536 1.08,-2.694 0,-0.838 -0.212,-1.556 -0.636,-2.153 -0.424,-0.597 -0.982,-0.991 -1.674,-1.183 -0.447,-0.118 -1.272,-0.177 -2.475,-0.177 h -5.126 v 7.163 z" id="path3456"/>
		</g><path d="m 240.246,1104.0593 h 108.71256 v 51.273 H 240.246 v -51.273 z" id="rect3699-7-9-5-4-2-9-6-0" style="fill: none; stroke: rgb(0, 0, 0); stroke-width: 2.80679; stroke-linecap: round; stroke-linejoin: round;"/></g><g id="g4564"><g transform="matrix(1.40339, 0, 0, 1.40339, 247.089, 66.2349)" id="text3371-7-0-4-8-5-7-1-2-6-4-7-3-4">
			<path d="M 13.731,847.433 V 827.39 h 7.56 c 1.33,0 2.347,0.064 3.049,0.192 0.984,0.163 1.809,0.476 2.474,0.937 0.665,0.459 1.2,1.105 1.606,1.934 0.406,0.829 0.609,1.74 0.609,2.733 0,1.705 -0.543,3.147 -1.627,4.328 -1.085,1.18 -3.044,1.77 -5.879,1.77 h -5.14 v 8.148 h -2.652 z m 2.653,-10.515 h 5.181 c 1.714,0 2.93,-0.319 3.65,-0.956 0.72,-0.639 1.08,-1.536 1.08,-2.694 0,-0.838 -0.212,-1.556 -0.635,-2.153 -0.424,-0.597 -0.983,-0.991 -1.675,-1.183 -0.447,-0.118 -1.272,-0.177 -2.475,-0.177 h -5.126 v 7.163 z" id="path3444"/>
			<path d="m 32.011,853.025 -0.273,-2.312 c 0.538,0.146 1.007,0.22 1.408,0.22 0.546,0 0.984,-0.092 1.312,-0.274 0.328,-0.182 0.597,-0.437 0.806,-0.765 0.155,-0.246 0.406,-0.857 0.752,-1.831 0.045,-0.138 0.118,-0.338 0.219,-0.603 l -5.51,-14.546 h 2.653 l 3.021,8.407 c 0.392,1.067 0.742,2.188 1.052,3.364 0.283,-1.13 0.62,-2.232 1.012,-3.308 l 3.104,-8.463 h 2.461 l -5.524,14.766 c -0.592,1.595 -1.053,2.693 -1.381,3.294 -0.438,0.811 -0.939,1.406 -1.504,1.784 -0.565,0.378 -1.24,0.568 -2.024,0.568 -0.472,-10e-4 -1.001,-0.101 -1.584,-0.301 z" id="path3446"/>
			<path d="m 46.093,847.433 v -14.52 h 2.214 v 2.2 c 0.565,-1.03 1.087,-1.709 1.566,-2.036 0.479,-0.328 1.005,-0.493 1.579,-0.493 0.829,0 1.673,0.264 2.529,0.793 l -0.848,2.282 c -0.602,-0.355 -1.203,-0.533 -1.805,-0.533 -0.537,0 -1.021,0.163 -1.449,0.486 -0.429,0.324 -0.734,0.772 -0.916,1.347 -0.273,0.874 -0.41,1.831 -0.41,2.871 v 7.602 h -2.46 z" id="path3448"/>
		</g><path d="m 240.246,1219.9516 h 108.71256 v 51.273 H 240.246 v -51.273 z" id="rect3699-7-9-5-4-2-3-8-9-8" style="fill: none; stroke: rgb(0, 0, 0); stroke-width: 2.80679; stroke-linecap: round; stroke-linejoin: round;"/></g><g id="g4530"><g transform="matrix(1.40339, 0, 0, 1.40339, 247.089, 66.2349)" id="text3371-7-0-4-8-5-7-4-4-5">
			<path d="m -8.54,512.582 h -2.461 V 496.9 c -0.593,0.565 -1.369,1.13 -2.331,1.697 -0.962,0.565 -1.825,0.988 -2.591,1.271 v -2.378 c 1.376,-0.647 2.579,-1.431 3.609,-2.352 1.031,-0.92 1.759,-1.813 2.188,-2.679 h 1.586 v 20.123 z" id="path3428"/>
			<path d="m -0.898,512.582 v -2.803 h 2.803 v 2.803 c 0,1.03 -0.182,1.862 -0.547,2.495 -0.365,0.633 -0.944,1.123 -1.736,1.47 l -0.684,-1.052 c 0.52,-0.228 0.903,-0.564 1.149,-1.005 0.246,-0.443 0.383,-1.079 0.41,-1.908 h -1.395 z" id="path3430"/>
			<path d="m 5.556,507.291 2.461,-0.327 c 0.283,1.395 0.763,2.399 1.443,3.014 0.679,0.615 1.507,0.923 2.481,0.923 1.158,0 2.135,-0.401 2.933,-1.204 0.797,-0.802 1.196,-1.795 1.196,-2.98 0,-1.13 -0.37,-2.062 -1.108,-2.796 -0.738,-0.733 -1.677,-1.101 -2.816,-1.101 -0.465,0 -1.044,0.092 -1.736,0.274 l 0.273,-2.161 c 0.164,0.018 0.296,0.028 0.396,0.028 1.049,0 1.992,-0.273 2.83,-0.82 0.839,-0.547 1.258,-1.39 1.258,-2.53 0,-0.902 -0.305,-1.649 -0.916,-2.242 -0.611,-0.593 -1.399,-0.888 -2.365,-0.888 -0.958,0 -1.755,0.301 -2.393,0.902 -0.638,0.601 -1.048,1.504 -1.23,2.707 l -2.461,-0.437 c 0.301,-1.651 0.985,-2.928 2.051,-3.836 1.066,-0.907 2.392,-1.36 3.978,-1.36 1.094,0 2.101,0.234 3.021,0.704 0.921,0.469 1.625,1.109 2.113,1.921 0.487,0.811 0.731,1.673 0.731,2.583 0,0.867 -0.232,1.655 -0.697,2.366 -0.465,0.711 -1.153,1.276 -2.065,1.695 1.185,0.274 2.106,0.841 2.762,1.702 0.656,0.861 0.984,1.94 0.984,3.234 0,1.749 -0.637,3.233 -1.914,4.449 -1.276,1.216 -2.889,1.826 -4.84,1.826 -1.759,0 -3.22,-0.525 -4.382,-1.573 -1.161,-1.046 -1.824,-2.404 -1.988,-4.073 l 0,0 z" id="path3432"/>
			<path d="m 20.854,506.567 v -2.474 h 7.56 v 2.474 h -7.56 z" id="path3434"/>
			<path d="M 33.433,512.582 H 31.15 V 492.54 h 2.461 v 7.149 c 1.039,-1.303 2.365,-1.954 3.978,-1.954 0.893,0 1.738,0.18 2.536,0.54 0.797,0.359 1.454,0.866 1.969,1.517 0.515,0.651 0.918,1.438 1.209,2.359 0.292,0.92 0.438,1.904 0.438,2.953 0,2.488 -0.615,4.41 -1.845,5.769 -1.231,1.358 -2.708,2.037 -4.43,2.037 -1.713,0 -3.058,-0.715 -4.033,-2.146 v 1.818 z m -0.028,-7.369 c 0,1.741 0.237,2.999 0.71,3.774 0.775,1.266 1.823,1.9 3.145,1.9 1.076,0 2.005,-0.468 2.789,-1.401 0.784,-0.934 1.176,-2.327 1.176,-4.177 0,-1.896 -0.376,-3.296 -1.128,-4.197 -0.752,-0.902 -1.661,-1.353 -2.728,-1.353 -1.075,0 -2.005,0.466 -2.788,1.4 -0.784,0.935 -1.176,2.287 -1.176,4.054 z" id="path3436"/>
			<path d="M 47.063,512.582 V 492.54 h 7.561 c 1.33,0 2.346,0.063 3.049,0.191 0.985,0.164 1.809,0.476 2.474,0.937 0.665,0.461 1.201,1.105 1.607,1.934 0.406,0.829 0.608,1.741 0.608,2.735 0,1.705 -0.542,3.147 -1.627,4.327 -1.085,1.18 -3.044,1.77 -5.879,1.77 h -5.141 v 8.148 h -2.652 z m 2.653,-10.513 h 5.181 c 1.714,0 2.931,-0.319 3.65,-0.957 0.72,-0.637 1.08,-1.535 1.081,-2.693 -10e-4,-0.839 -0.212,-1.556 -0.636,-2.153 -0.424,-0.597 -0.982,-0.992 -1.675,-1.183 -0.447,-0.118 -1.271,-0.178 -2.474,-0.178 h -5.127 v 7.164 z" id="path3438"/>
			<path d="m 75.145,504.722 v -2.352 l 8.491,-0.014 v 7.437 c -1.304,1.04 -2.648,1.82 -4.033,2.345 -1.385,0.525 -2.808,0.786 -4.266,0.786 -1.969,0 -3.758,-0.422 -5.366,-1.265 -1.609,-0.843 -2.823,-2.062 -3.644,-3.657 -0.821,-1.595 -1.23,-3.376 -1.23,-5.346 0,-1.95 0.408,-3.772 1.223,-5.461 0.816,-1.691 1.989,-2.946 3.52,-3.767 1.532,-0.82 3.295,-1.23 5.291,-1.23 1.449,0 2.759,0.235 3.931,0.704 1.171,0.469 2.089,1.123 2.754,1.962 0.666,0.838 1.172,1.932 1.518,3.28 l -2.392,0.657 c -0.301,-1.022 -0.674,-1.823 -1.121,-2.406 -0.447,-0.583 -1.085,-1.051 -1.914,-1.401 -0.829,-0.351 -1.75,-0.526 -2.762,-0.526 -1.212,0 -2.26,0.184 -3.144,0.554 -0.884,0.369 -1.598,0.854 -2.14,1.456 -0.543,0.601 -0.964,1.262 -1.265,1.982 -0.51,1.24 -0.765,2.584 -0.765,4.033 0,1.787 0.308,3.282 0.923,4.484 0.615,1.204 1.511,2.097 2.687,2.68 1.176,0.583 2.424,0.875 3.746,0.875 1.149,0 2.27,-0.221 3.364,-0.664 1.093,-0.441 1.923,-0.913 2.488,-1.415 v -3.731 h -5.894 z" id="path3440"/>
		</g><path d="m 213.9127,748.60751 h 161.38056 v 50.92217 H 213.9127 v -50.92217 l 0,0 z" id="rect3699-7-9-5-4-2-3-3-6-6-2" style="fill: none; stroke: rgb(0, 0, 0); stroke-width: 2.80679; stroke-linecap: round; stroke-linejoin: round;"/></g><g id="g4483"><path d="m 294.66262,683.62332 v 55.45935" id="rect4388-0-3-6-8_1_" style="fill: none; stroke: rgb(0, 0, 0); stroke-width: 2.80623; stroke-linecap: round; stroke-linejoin: round;"/><path d="m 300.93439,729.13962 -5.96021,16.49269 -6.70262,-15.96361 6.45843,3.03975 6.2044,-3.56883 z" id="path2556-1-6-4-9-7-0-9" style="stroke: rgb(0, 0, 0); stroke-width: 2.71739; stroke-linecap: round; stroke-miterlimit: 10;"/></g><g id="g4519"><path d="m 294.66262,801.399 v 55.45935" id="rect4388-0-3-5-4_1_" style="fill: none; stroke: rgb(0, 0, 0); stroke-width: 2.80623; stroke-linecap: round; stroke-linejoin: round;"/><path d="m 300.93439,846.91389 -5.96021,16.4927 -6.70262,-15.96362 6.45843,3.03976 6.2044,-3.56884 0,0 z" id="path2556-1-6-4-9-7-7-1" style="stroke: rgb(0, 0, 0); stroke-width: 2.71739; stroke-linecap: round; stroke-miterlimit: 10;"/></g><g id="g4515"><path d="m 294.66262,920.45879 v 55.46075" id="rect4388-0-3-1-3_1_" style="fill: none; stroke: rgb(0, 0, 0); stroke-width: 2.80623; stroke-linecap: round; stroke-linejoin: round;"/><path d="m 300.93439,965.97509 -5.96021,16.49409 -6.70262,-15.96361 6.45843,3.03694 6.2044,-3.56742 0,0 z" id="path2556-1-6-4-9-7-2-9" style="stroke: rgb(0, 0, 0); stroke-width: 2.71739; stroke-linecap: round; stroke-miterlimit: 10;"/></g><g id="g4511"><path d="m 294.66262,1038.1447 v 55.4593" id="rect4388-0-3-14-8_1_" style="fill: none; stroke: rgb(0, 0, 0); stroke-width: 2.80623; stroke-linecap: round; stroke-linejoin: round;"/><path d="m 300.93439,1083.661 -5.96021,16.4926 -6.70262,-15.9608 6.45843,3.037 6.2044,-3.5688 0,0 z" id="path2556-1-6-4-9-7-6-0" style="stroke: rgb(0, 0, 0); stroke-width: 2.71739; stroke-linecap: round; stroke-miterlimit: 10;"/></g><g id="g4507"><path d="m 294.66262,1155.3225 v 55.4593" id="rect4388-0-3-7-7_1_" style="fill: none; stroke: rgb(0, 0, 0); stroke-width: 2.80623; stroke-linecap: round; stroke-linejoin: round;"/><path d="m 300.93439,1200.8374 -5.96021,16.4941 -6.70262,-15.9636 6.45843,3.0369 6.2044,-3.5674 z" id="path2556-1-6-4-9-7-77-7" style="stroke: rgb(0, 0, 0); stroke-width: 2.71739; stroke-linecap: round; stroke-miterlimit: 10;"/></g><g id="g4471"><path d="m 390.151,442.11174 -84.92643,125.35822 -0.007,-0.004" id="rect4388-0-3-3_1_" style="fill: none; stroke: rgb(0, 0, 0); stroke-width: 2.80679; stroke-linecap: round; stroke-linejoin: round;"/><path d="m 313.77265,565.3775 -14.18551,10.31214 3.40463,-16.97405 3.64321,6.13704 7.13767,0.52487 z" id="path2556-1-6-4-9-7-71" style="stroke: rgb(0, 0, 0); stroke-width: 2.71739; stroke-linecap: round; stroke-miterlimit: 10;"/></g><g id="g4475"><path d="m 442.05133,443.56425 34.82945,43.15719" id="rect4388-0-3-3-7_1_" style="fill: none; stroke: rgb(0, 0, 0); stroke-width: 2.80623; stroke-linecap: round; stroke-linejoin: round;"/><path d="m 465.75748,482.92245 14.99667,9.09119 -4.80803,-16.63022 -3.11834,6.41913 -7.0703,1.1199 0,0 z" id="path2556-1-6-4-9-7-71-3" style="stroke: rgb(0, 0, 0); stroke-width: 2.71739; stroke-linecap: round; stroke-miterlimit: 10;"/></g><g id="g4455"><path d="m 554.18116,78.096441 c -78.37538,0 -141.91267,7.088546 -141.91267,15.833098 0,8.090571 54.68328,14.880191 126.7939,15.741881" id="path3343" style="fill: none; stroke: rgb(0, 0, 0); stroke-width: 2.806; stroke-linecap: round; stroke-linejoin: round; stroke-miterlimit: 4; stroke-dasharray: none;"/><path d="m 539.42447,103.47403 16.07307,7.01557 -16.36358,5.65568 3.44955,-6.24792 -3.15904,-6.42333 z" id="path2556-1-6-49" style="stroke: rgb(0, 0, 0); stroke-width: 2.71739; stroke-linecap: round; stroke-miterlimit: 10;"/></g><g transform="matrix(1.40339, 0, 0, 1.40339, 247.089, 66.2349)" id="text5517">
			<path d="m 241.44,40.072 h -3.145 l -1.25,-3.252 h -5.723 l -1.182,3.252 h -3.067 l 5.576,-14.316 h 3.057 l 5.734,14.316 z m -5.322,-5.664 -1.972,-5.313 -1.934,5.313 h 3.906 z" id="path3368" style="fill: rgb(255, 0, 0);"/>
			<path d="m 242.973,25.756 h 5.284 c 1.191,0 2.099,0.091 2.724,0.273 0.84,0.247 1.559,0.687 2.159,1.318 0.598,0.632 1.054,1.405 1.367,2.319 0.313,0.915 0.469,2.043 0.469,3.384 0,1.178 -0.146,2.194 -0.439,3.047 -0.358,1.042 -0.869,1.885 -1.534,2.529 -0.501,0.488 -1.178,0.869 -2.031,1.143 -0.638,0.202 -1.491,0.303 -2.559,0.303 h -5.44 V 25.756 z m 2.891,2.422 v 9.482 h 2.159 c 0.807,0 1.39,-0.046 1.748,-0.137 0.469,-0.117 0.858,-0.316 1.167,-0.596 0.309,-0.28 0.562,-0.741 0.757,-1.382 0.195,-0.641 0.293,-1.515 0.293,-2.622 0,-1.107 -0.098,-1.956 -0.293,-2.549 -0.196,-0.593 -0.469,-1.055 -0.82,-1.386 -0.351,-0.332 -0.797,-0.557 -1.338,-0.674 -0.404,-0.091 -1.195,-0.137 -2.373,-0.137 h -1.3 z" id="path3370" style="fill: rgb(255, 0, 0);"/>
			<path d="M 257.437,40.072 V 25.756 h 4.639 c 1.758,0 2.904,0.072 3.438,0.215 0.82,0.215 1.507,0.682 2.06,1.401 0.553,0.72 0.83,1.649 0.83,2.788 0,0.879 -0.159,1.618 -0.479,2.217 -0.319,0.599 -0.724,1.069 -1.216,1.411 -0.491,0.342 -0.992,0.568 -1.499,0.679 -0.69,0.136 -1.69,0.205 -2.998,0.205 h -1.884 v 5.4 h -2.891 z m 2.89,-11.894 v 4.062 h 1.582 c 1.14,0 1.901,-0.075 2.285,-0.225 0.384,-0.15 0.685,-0.384 0.903,-0.703 0.219,-0.319 0.327,-0.69 0.327,-1.113 0,-0.521 -0.153,-0.951 -0.459,-1.289 -0.306,-0.339 -0.694,-0.55 -1.162,-0.635 -0.345,-0.065 -1.039,-0.097 -2.08,-0.097 h -1.396 z" id="path3372" style="fill: rgb(255, 0, 0);"/>
		</g><g transform="matrix(1.40339, 0, 0, 1.40339, 247.089, 66.2349)" id="text5517-6">
			<path d="m 241.44,14.724 h -3.145 l -1.25,-3.252 h -5.723 l -1.182,3.252 h -3.067 l 5.576,-14.317 h 3.057 l 5.734,14.317 z M 236.118,9.06 234.146,3.747 232.212,9.06 h 3.906 z" id="path3361" style="fill: rgb(255, 0, 0);"/>
			<path d="M 246.206,14.724 V 2.829 h -4.248 V 0.407 h 11.377 v 2.422 h -4.238 v 11.895 h -2.891 z" id="path3363" style="fill: rgb(255, 0, 0);"/>
			<path d="M 255.21,14.724 V 0.407 h 4.639 c 1.758,0 2.904,0.072 3.438,0.215 0.82,0.215 1.507,0.682 2.06,1.401 0.553,0.72 0.83,1.649 0.83,2.788 0,0.879 -0.159,1.617 -0.479,2.217 -0.319,0.599 -0.724,1.07 -1.216,1.411 -0.492,0.341 -0.991,0.568 -1.499,0.678 -0.69,0.137 -1.69,0.205 -2.998,0.205 H 258.1 v 5.401 h -2.89 z M 258.1,2.829 v 4.062 h 1.582 c 1.14,0 1.901,-0.075 2.285,-0.224 0.384,-0.15 0.685,-0.384 0.903,-0.703 0.219,-0.319 0.328,-0.69 0.328,-1.113 0,-0.521 -0.153,-0.951 -0.459,-1.289 -0.306,-0.339 -0.693,-0.55 -1.162,-0.635 -0.345,-0.065 -1.038,-0.098 -2.08,-0.098 H 258.1 z" id="path3365" style="fill: rgb(255, 0, 0);"/>
		</g><g id="g4451"><path d="m 555.26318,312.81138 c -78.37538,0 -141.91267,7.08855 -141.91267,15.8331 0,8.09057 54.68327,14.88019 126.7939,15.74188" id="path3343-1" style="fill: none; stroke: rgb(0, 0, 0); stroke-width: 2.806; stroke-linecap: round; stroke-linejoin: round; stroke-miterlimit: 4; stroke-dasharray: none;"/><path d="m 537.19307,338.19037 16.07167,7.01557 -16.36217,5.65568 3.44954,-6.24791 -3.15904,-6.42334 z" id="path2556-1-6-49-6" style="stroke: rgb(0, 0, 0); stroke-width: 2.71739; stroke-linecap: round; stroke-miterlimit: 10;"/></g><g transform="matrix(1.40339, 0, 0, 1.40339, 247.089, 66.2349)" id="text5517-8">
			<path d="m 239.85,207.32 h -3.145 l -1.25,-3.252 h -5.722 l -1.182,3.252 h -3.066 l 5.576,-14.316 h 3.057 l 5.732,14.316 z m -5.322,-5.664 -1.973,-5.312 -1.933,5.312 h 3.906 z" id="path3353" style="fill: rgb(255, 0, 0);"/>
			<path d="m 241.383,193.004 h 5.283 c 1.192,0 2.1,0.091 2.725,0.273 0.84,0.247 1.559,0.687 2.158,1.318 0.599,0.632 1.055,1.405 1.367,2.319 0.312,0.914 0.469,2.043 0.469,3.384 0,1.178 -0.147,2.194 -0.44,3.047 -0.358,1.042 -0.869,1.885 -1.533,2.529 -0.501,0.488 -1.179,0.869 -2.031,1.143 -0.638,0.202 -1.491,0.303 -2.559,0.303 h -5.44 v -14.316 z m 2.891,2.422 v 9.482 h 2.159 c 0.807,0 1.39,-0.045 1.748,-0.136 0.468,-0.117 0.857,-0.316 1.167,-0.596 0.309,-0.28 0.562,-0.74 0.756,-1.382 0.196,-0.641 0.293,-1.515 0.293,-2.622 0,-1.107 -0.097,-1.956 -0.293,-2.549 -0.195,-0.593 -0.468,-1.055 -0.82,-1.387 -0.351,-0.332 -0.797,-0.557 -1.337,-0.674 -0.404,-0.091 -1.195,-0.137 -2.373,-0.137 h -1.3 z" id="path3355" style="fill: rgb(255, 0, 0);"/>
			<path d="m 255.846,207.32 v -14.316 h 4.639 c 1.758,0 2.904,0.072 3.438,0.215 0.82,0.215 1.507,0.682 2.06,1.401 0.554,0.72 0.83,1.649 0.83,2.788 0,0.879 -0.159,1.618 -0.478,2.217 -0.319,0.599 -0.724,1.069 -1.216,1.411 -0.491,0.342 -0.991,0.568 -1.499,0.678 -0.69,0.137 -1.69,0.205 -2.998,0.205 h -1.885 v 5.4 h -2.891 z m 2.891,-11.894 v 4.062 h 1.582 c 1.139,0 1.901,-0.075 2.285,-0.225 0.384,-0.15 0.685,-0.384 0.903,-0.703 0.218,-0.319 0.327,-0.69 0.327,-1.113 0,-0.521 -0.153,-0.951 -0.459,-1.289 -0.306,-0.339 -0.694,-0.55 -1.162,-0.635 -0.345,-0.065 -1.039,-0.097 -2.081,-0.097 h -1.395 z" id="path3357" style="fill: rgb(255, 0, 0);"/>
		</g><g transform="matrix(1.40339, 0, 0, 1.40339, 247.089, 66.2349)" id="text5517-6-4">
			<path d="m 239.85,181.972 h -3.145 l -1.25,-3.252 h -5.722 l -1.182,3.252 h -3.066 l 5.576,-14.316 h 3.057 l 5.732,14.316 z m -5.322,-5.664 -1.973,-5.313 -1.933,5.313 h 3.906 z" id="path3346" style="fill: rgb(255, 0, 0);"/>
			<path d="m 244.615,181.972 v -11.894 h -4.247 v -2.422 h 11.377 v 2.422 h -4.238 v 11.894 h -2.892 z" id="path3348" style="fill: rgb(255, 0, 0);"/>
			<path d="m 253.62,181.972 v -14.316 h 4.639 c 1.758,0 2.903,0.071 3.438,0.215 0.82,0.215 1.507,0.682 2.06,1.401 0.553,0.719 0.83,1.649 0.83,2.788 0,0.879 -0.16,1.618 -0.479,2.217 -0.319,0.599 -0.724,1.069 -1.216,1.411 -0.492,0.342 -0.992,0.568 -1.499,0.678 -0.69,0.137 -1.69,0.205 -2.998,0.205 h -1.884 v 5.4 h -2.891 z m 2.89,-11.894 v 4.062 h 1.582 c 1.139,0 1.901,-0.075 2.285,-0.225 0.384,-0.15 0.685,-0.384 0.903,-0.703 0.219,-0.319 0.327,-0.69 0.327,-1.113 0,-0.521 -0.153,-0.951 -0.459,-1.289 -0.306,-0.339 -0.694,-0.55 -1.162,-0.635 -0.345,-0.065 -1.039,-0.097 -2.081,-0.097 h -1.395 z" id="path3350" style="fill: rgb(255, 0, 0);"/>
		</g><g id="g4443"><path d="m 670.86219,815.82028 c -78.37537,0 -141.91266,7.08855 -141.91266,15.8317 0,8.09197 54.68327,14.88159 126.79389,15.74188" id="path3343-9" style="fill: none; stroke: rgb(0, 0, 0); stroke-width: 2.806; stroke-linecap: round; stroke-linejoin: round; stroke-miterlimit: 4; stroke-dasharray: none;"/><path d="m 652.79068,841.19787 16.07308,7.01557 -16.36218,5.65568 3.44814,-6.24791 -3.15904,-6.42334 0,0 z" id="path2556-1-6-49-5" style="stroke: rgb(0, 0, 0); stroke-width: 2.71739; stroke-linecap: round; stroke-miterlimit: 10;"/></g><g transform="matrix(1.40339, 0, 0, 1.40339, 247.089, 66.2349)" id="text5517-3">
			<path d="m 322.22,565.743 h -3.145 l -1.25,-3.252 h -5.723 l -1.182,3.252 h -3.067 l 5.577,-14.317 h 3.056 l 5.734,14.317 z m -5.322,-5.664 -1.973,-5.312 -1.934,5.312 h 3.907 z" id="path3338" style="fill: rgb(255, 0, 0);"/>
			<path d="m 326.986,565.743 v -11.895 h -4.248 v -2.422 h 11.377 v 2.422 h -4.238 v 11.895 h -2.891 z" id="path3340" style="fill: rgb(255, 0, 0);"/>
			<path d="m 335.99,565.743 v -14.317 h 4.639 c 1.758,0 2.904,0.072 3.438,0.214 0.82,0.216 1.507,0.683 2.06,1.401 0.554,0.72 0.83,1.649 0.83,2.789 0,0.878 -0.159,1.617 -0.478,2.217 -0.319,0.598 -0.724,1.069 -1.216,1.411 -0.491,0.341 -0.991,0.568 -1.499,0.678 -0.69,0.136 -1.69,0.206 -2.998,0.206 h -1.885 v 5.4 h -2.891 z m 2.89,-11.895 v 4.062 h 1.582 c 1.139,0 1.901,-0.074 2.285,-0.224 0.384,-0.15 0.685,-0.384 0.903,-0.703 0.218,-0.319 0.327,-0.69 0.327,-1.113 0,-0.521 -0.153,-0.951 -0.459,-1.289 -0.305,-0.34 -0.693,-0.551 -1.162,-0.636 -0.345,-0.064 -1.038,-0.097 -2.08,-0.097 h -1.396 z" id="path3342" style="fill: rgb(255, 0, 0);"/>
		</g><g transform="matrix(1.40339, 0, 0, 1.40339, 247.089, 66.2349)" id="text5517-6-7">
			<path d="m 322.22,540.394 h -3.145 l -1.25,-3.251 h -5.723 l -1.182,3.251 h -3.067 l 5.577,-14.317 h 3.056 l 5.734,14.317 z m -5.322,-5.664 -1.973,-5.312 -1.934,5.312 h 3.907 z" id="path3331" style="fill: rgb(255, 0, 0);"/>
			<path d="m 323.754,526.078 h 5.283 c 1.191,0 2.099,0.092 2.725,0.274 0.839,0.248 1.559,0.686 2.158,1.318 0.599,0.632 1.055,1.404 1.367,2.32 0.312,0.914 0.468,2.042 0.468,3.383 0,1.179 -0.146,2.195 -0.439,3.047 -0.358,1.042 -0.869,1.886 -1.534,2.53 -0.501,0.488 -1.178,0.868 -2.031,1.143 -0.638,0.202 -1.491,0.302 -2.559,0.302 h -5.44 v -14.317 z m 2.891,2.423 v 9.482 h 2.158 c 0.807,0 1.39,-0.046 1.748,-0.136 0.469,-0.117 0.858,-0.316 1.167,-0.596 0.31,-0.28 0.562,-0.74 0.757,-1.382 0.196,-0.642 0.293,-1.516 0.293,-2.622 0,-1.106 -0.097,-1.957 -0.293,-2.55 -0.195,-0.591 -0.469,-1.053 -0.82,-1.386 -0.351,-0.333 -0.797,-0.557 -1.338,-0.674 -0.404,-0.092 -1.194,-0.136 -2.373,-0.136 h -1.299 z" id="path3333" style="fill: rgb(255, 0, 0);"/>
			<path d="m 338.217,540.394 v -14.317 h 4.639 c 1.758,0 2.904,0.072 3.438,0.216 0.82,0.214 1.507,0.682 2.06,1.401 0.553,0.719 0.83,1.648 0.83,2.788 0,0.88 -0.159,1.619 -0.479,2.217 -0.319,0.598 -0.724,1.069 -1.216,1.411 -0.491,0.341 -0.991,0.568 -1.499,0.679 -0.69,0.136 -1.69,0.205 -2.998,0.205 h -1.885 v 5.4 h -2.89 z m 2.89,-11.893 v 4.062 h 1.582 c 1.139,0 1.9,-0.075 2.284,-0.225 0.385,-0.149 0.685,-0.384 0.904,-0.703 0.218,-0.319 0.327,-0.69 0.327,-1.113 0,-0.521 -0.153,-0.951 -0.459,-1.289 -0.306,-0.338 -0.693,-0.55 -1.162,-0.635 -0.345,-0.065 -1.038,-0.097 -2.08,-0.097 h -1.396 z" id="path3335" style="fill: rgb(255, 0, 0);"/>
		</g><g id="g4435"><path d="m 670.19698,1168.026 c -78.37537,0 -141.91266,7.0886 -141.91266,15.8317 0,8.0892 54.68327,14.8788 126.79389,15.7419" id="path3343-9-3" style="fill: none; stroke: rgb(0, 0, 0); stroke-width: 2.806; stroke-linecap: round; stroke-linejoin: round; stroke-miterlimit: 4; stroke-dasharray: none;"/><path d="m 653.22994,1193.4022 16.07308,7.0156 -16.36358,5.6556 3.44955,-6.2479 -3.15905,-6.4233 z" id="path2556-1-6-49-5-8" style="stroke: rgb(0, 0, 0); stroke-width: 2.71739; stroke-linecap: round; stroke-miterlimit: 10;"/></g><g transform="matrix(1.40339, 0, 0, 1.40339, 247.089, 66.2349)" id="text5517-3-0">
			<path d="m 322.533,816.709 h -3.145 l -1.25,-3.252 h -5.723 l -1.182,3.252 h -3.067 l 5.577,-14.317 h 3.056 l 5.734,14.317 z m -5.322,-5.664 -1.973,-5.312 -1.934,5.312 h 3.907 z" id="path3323" style="fill: rgb(255, 0, 0);"/>
			<path d="m 327.299,816.709 v -11.895 h -4.248 v -2.422 h 11.377 v 2.422 h -4.238 v 11.895 h -2.891 z" id="path3325" style="fill: rgb(255, 0, 0);"/>
			<path d="m 336.303,816.709 v -14.317 h 4.639 c 1.758,0 2.904,0.071 3.438,0.214 0.82,0.216 1.507,0.682 2.06,1.401 0.553,0.72 0.83,1.649 0.83,2.788 0,0.88 -0.159,1.619 -0.479,2.217 -0.319,0.6 -0.724,1.07 -1.216,1.411 -0.491,0.342 -0.991,0.568 -1.499,0.679 -0.69,0.136 -1.69,0.205 -2.998,0.205 h -1.885 v 5.401 h -2.89 z m 2.891,-11.895 v 4.062 h 1.582 c 1.139,0 1.901,-0.075 2.285,-0.224 0.384,-0.15 0.685,-0.384 0.903,-0.704 0.218,-0.319 0.327,-0.689 0.327,-1.112 0,-0.522 -0.153,-0.951 -0.459,-1.29 -0.306,-0.338 -0.693,-0.55 -1.162,-0.635 -0.345,-0.065 -1.038,-0.097 -2.08,-0.097 h -1.396 z" id="path3327" style="fill: rgb(255, 0, 0);"/>
		</g><g transform="matrix(1.40339, 0, 0, 1.40339, 247.089, 66.2349)" id="text5517-6-7-8">
			<path d="m 322.533,791.361 h -3.145 l -1.25,-3.252 h -5.723 l -1.182,3.252 h -3.067 l 5.577,-14.317 h 3.056 l 5.734,14.317 z m -5.322,-5.665 -1.973,-5.312 -1.934,5.312 h 3.907 z" id="path3316" style="fill: rgb(255, 0, 0);"/>
			<path d="m 324.067,777.044 h 5.283 c 1.191,0 2.099,0.092 2.724,0.274 0.84,0.246 1.559,0.686 2.159,1.318 0.599,0.632 1.054,1.404 1.367,2.319 0.312,0.916 0.468,2.043 0.468,3.385 0,1.177 -0.146,2.193 -0.439,3.046 -0.358,1.042 -0.869,1.884 -1.534,2.529 -0.501,0.488 -1.178,0.87 -2.031,1.143 -0.638,0.202 -1.491,0.303 -2.559,0.303 h -5.439 v -14.317 z m 2.891,2.422 v 9.483 h 2.158 c 0.807,0 1.39,-0.046 1.748,-0.136 0.469,-0.118 0.858,-0.316 1.167,-0.597 0.31,-0.28 0.562,-0.74 0.757,-1.381 0.195,-0.642 0.293,-1.516 0.293,-2.622 0,-1.108 -0.098,-1.957 -0.293,-2.55 -0.196,-0.593 -0.469,-1.055 -0.82,-1.386 -0.351,-0.333 -0.797,-0.557 -1.338,-0.675 -0.404,-0.09 -1.194,-0.136 -2.373,-0.136 h -1.299 z" id="path3318" style="fill: rgb(255, 0, 0);"/>
			<path d="m 338.53,791.361 v -14.317 h 4.639 c 1.758,0 2.904,0.071 3.438,0.214 0.82,0.216 1.507,0.682 2.06,1.401 0.553,0.72 0.83,1.649 0.83,2.789 0,0.878 -0.159,1.617 -0.479,2.217 -0.319,0.598 -0.724,1.069 -1.216,1.411 -0.491,0.341 -0.991,0.568 -1.499,0.678 -0.69,0.136 -1.69,0.206 -2.998,0.206 h -1.884 v 5.4 h -2.891 z m 2.89,-11.895 v 4.062 h 1.582 c 1.14,0 1.901,-0.074 2.285,-0.224 0.384,-0.15 0.685,-0.384 0.903,-0.703 0.219,-0.32 0.328,-0.69 0.328,-1.113 0,-0.521 -0.153,-0.951 -0.459,-1.289 -0.306,-0.34 -0.693,-0.551 -1.162,-0.636 -0.345,-0.064 -1.038,-0.097 -2.08,-0.097 h -1.397 z" id="path3320" style="fill: rgb(255, 0, 0);"/>
		</g><g id="g4447"><path d="m 670.19698,694.69751 c -78.37678,0 -141.91266,7.08854 -141.91266,15.83169 0,8.08917 54.68327,14.87879 126.79389,15.74188" id="path3343-9-8" style="fill: none; stroke: rgb(0, 0, 0); stroke-width: 2.806; stroke-linecap: round; stroke-linejoin: round; stroke-miterlimit: 4; stroke-dasharray: none;"/><path d="m 653.22994,720.07509 16.07308,7.01557 -16.36358,5.65568 3.44955,-6.24791 -3.15905,-6.42334 0,0 z" id="path2556-1-6-49-5-1" style="stroke: rgb(0, 0, 0); stroke-width: 2.71739; stroke-linecap: round; stroke-miterlimit: 10;"/></g><g id="g4419"><path d="m 149.61477,695.47499 c 78.37538,0 141.91267,7.08995 141.91267,15.83169 0,8.09197 -54.68327,14.88019 -126.7939,15.74188" id="path3343-9-8-8" style="fill: none; stroke: rgb(0, 0, 0); stroke-width: 2.806; stroke-linecap: round; stroke-linejoin: round; stroke-miterlimit: 4; stroke-dasharray: none;"/><path d="m 167.68629,720.85397 -16.07308,7.01557 16.36358,5.65428 -3.44954,-6.24791 3.15904,-6.42194 z" id="path2556-1-6-49-5-1-1" style="stroke: rgb(0, 0, 0); stroke-width: 2.71739; stroke-linecap: round; stroke-miterlimit: 10;"/></g><g transform="matrix(1.40339, 0, 0, 1.40339, 247.089, 66.2349)" id="text5517-6-7-7-8">
			<path d="m -122.478,454.642 v -14.317 h 2.813 l 5.86,9.56 v -9.56 h 2.685 v 14.317 h -2.9 l -5.771,-9.337 v 9.337 h -2.687 z" id="path3418" style="fill: rgb(0, 0, 255);"/>
			<path d="m -95.144,454.642 h -3.145 l -1.25,-3.252 h -5.723 l -1.182,3.252 h -3.067 l 5.577,-14.317 h 3.056 l 5.734,14.317 z m -5.322,-5.664 -1.973,-5.312 -1.934,5.312 h 3.907 z" id="path3420" style="fill: rgb(0, 0, 255);"/>
			<path d="m -93.611,440.326 h 5.283 c 1.191,0 2.099,0.09 2.725,0.273 0.839,0.248 1.559,0.688 2.158,1.318 0.599,0.632 1.055,1.406 1.367,2.32 0.312,0.914 0.468,2.043 0.468,3.383 0,1.179 -0.146,2.195 -0.439,3.048 -0.358,1.041 -0.869,1.884 -1.533,2.529 -0.502,0.488 -1.179,0.87 -2.031,1.143 -0.638,0.202 -1.491,0.303 -2.559,0.303 h -5.44 v -14.317 z m 2.891,2.421 v 9.482 h 2.158 c 0.807,0 1.39,-0.045 1.748,-0.136 0.469,-0.117 0.858,-0.316 1.167,-0.596 0.31,-0.28 0.562,-0.74 0.757,-1.382 0.196,-0.642 0.293,-1.516 0.293,-2.622 0,-1.106 -0.097,-1.957 -0.293,-2.548 -0.196,-0.593 -0.469,-1.055 -0.82,-1.388 -0.351,-0.331 -0.797,-0.557 -1.337,-0.674 -0.404,-0.09 -1.195,-0.136 -2.374,-0.136 h -1.299 z" id="path3422" style="fill: rgb(0, 0, 255);"/>
		</g><g transform="matrix(1.40339, 0, 0, 1.40339, 247.089, 66.2349)" id="text5517-3-9-2-1">
			<path d="m -78.75,444.611 v -2.604 h -2.625 v -1.798 h 2.625 v -2.604 H -77 v 2.604 h 2.632 v 1.798 H -77 v 2.604 h -1.75 z" id="path3425" style="fill: rgb(0, 0, 255);"/>
		</g><g transform="matrix(1.40339, 0, 0, 1.40339, 247.089, 66.2349)" id="text5517-3-9-7">
			<path d="m -168.939,481.99 v -14.315 h 2.812 l 5.86,9.56 v -9.56 h 2.685 v 14.315 h -2.9 l -5.771,-9.336 v 9.336 h -2.686 z" id="path3402" style="fill: rgb(0, 0, 255);"/>
			<path d="m -141.605,481.99 h -3.145 l -1.25,-3.251 h -5.722 l -1.182,3.251 h -3.066 l 5.576,-14.315 h 3.057 l 5.732,14.315 z m -5.323,-5.663 -1.973,-5.314 -1.933,5.314 h 3.906 z" id="path3404" style="fill: rgb(0, 0, 255);"/>
			<path d="m -140.072,467.674 h 5.283 c 1.192,0 2.1,0.09 2.725,0.273 0.84,0.248 1.559,0.688 2.158,1.318 0.599,0.632 1.055,1.406 1.367,2.32 0.312,0.914 0.469,2.043 0.469,3.383 0,1.179 -0.147,2.195 -0.44,3.048 -0.358,1.041 -0.869,1.884 -1.533,2.529 -0.501,0.488 -1.179,0.868 -2.031,1.143 -0.638,0.202 -1.491,0.302 -2.559,0.302 h -5.44 v -14.316 z m 2.89,2.422 v 9.482 h 2.159 c 0.807,0 1.39,-0.046 1.748,-0.136 0.468,-0.117 0.857,-0.316 1.167,-0.596 0.309,-0.28 0.562,-0.74 0.756,-1.382 0.196,-0.642 0.293,-1.516 0.293,-2.622 0,-1.106 -0.097,-1.957 -0.293,-2.548 -0.195,-0.593 -0.468,-1.055 -0.82,-1.388 -0.352,-0.331 -0.798,-0.557 -1.338,-0.674 -0.404,-0.09 -1.195,-0.136 -2.373,-0.136 h -1.299 z" id="path3406" style="fill: rgb(0, 0, 255);"/>
			<path d="m -125.6,481.99 v -14.315 h 2.891 v 5.634 h 5.664 v -5.634 h 2.891 v 14.315 h -2.891 v -6.259 h -5.664 v 6.259 h -2.891 z" id="path3408" style="fill: rgb(0, 0, 255);"/>
			<path d="m -107.094,482.235 3.545,-14.805 h 2.06 l -3.584,14.805 h -2.021 z" id="path3410" style="fill: rgb(0, 0, 255);"/>
			<path d="m -94.506,481.99 v -14.315 h 2.891 v 5.634 h 5.664 v -5.634 h 2.891 v 14.315 h -2.891 v -6.259 h -5.664 v 6.259 h -2.891 z" id="path3412" style="fill: rgb(0, 0, 255);"/>
		</g><g transform="matrix(1.40339, 0, 0, 1.40339, 247.089, 66.2349)" id="text5517-3-9-2-2-2">
			<path d="m -78.75,471.009 v -2.604 h -2.625 v -1.798 h 2.625 v -2.604 H -77 v 2.604 h 2.632 v 1.798 H -77 v 2.604 h -1.75 z" id="path3415" style="fill: rgb(0, 0, 255);"/>
		</g><g id="g4423"><path d="m 149.64986,815.47505 c 78.37538,0 141.91266,7.08854 141.91266,15.83169 0,8.09198 -54.68327,14.8816 -126.79389,15.74188" id="path3343-9-8-8-2" style="fill: none; stroke: rgb(0, 0, 0); stroke-width: 2.806; stroke-linecap: round; stroke-linejoin: round; stroke-miterlimit: 4; stroke-dasharray: none;"/><path d="m 166.6155,840.85123 -16.07308,7.01557 16.36358,5.65568 -3.44954,-6.24791 3.15904,-6.42334 z" id="path2556-1-6-49-5-1-1-9" style="stroke: rgb(0, 0, 0); stroke-width: 2.71739; stroke-linecap: round; stroke-miterlimit: 10;"/></g><g id="g4431"><path d="m 150.75433,1165.3947 c 78.37538,0 141.91267,7.0885 141.91267,15.8316 0,8.0892 -54.68327,14.8788 -126.7939,15.7419" id="path3343-9-8-8-1" style="fill: none; stroke: rgb(0, 0, 0); stroke-width: 2.806; stroke-linecap: round; stroke-linejoin: round; stroke-miterlimit: 4; stroke-dasharray: none;"/><path d="m 166.6155,1190.7722 -16.07308,7.0156 16.36358,5.6557 -3.44954,-6.2479 3.15904,-6.4234 z" id="path2556-1-6-49-5-1-1-2" style="stroke: rgb(0, 0, 0); stroke-width: 2.71739; stroke-linecap: round; stroke-miterlimit: 10;"/></g><g transform="matrix(1.40339, 0, 0, 1.40339, 247.089, 66.2349)" id="text5517-3-0-7">
			<path d="m -103.14,815.822 h -3.145 l -1.25,-3.251 h -5.723 l -1.182,3.251 h -3.067 l 5.577,-14.317 h 3.056 l 5.734,14.317 z m -5.322,-5.663 -1.973,-5.314 -1.934,5.314 h 3.907 z" id="path3305" style="fill: rgb(255, 0, 0);"/>
			<path d="m -98.374,815.822 v -11.894 h -4.248 v -2.423 h 11.377 v 2.423 h -4.238 v 11.894 h -2.891 z" id="path3307" style="fill: rgb(255, 0, 0);"/>
			<path d="m -89.37,815.822 v -14.317 h 4.639 c 1.758,0 2.904,0.072 3.438,0.216 0.82,0.214 1.507,0.682 2.06,1.401 0.553,0.72 0.83,1.648 0.83,2.788 0,0.88 -0.159,1.619 -0.479,2.217 -0.319,0.598 -0.724,1.069 -1.216,1.411 -0.491,0.342 -0.991,0.568 -1.499,0.679 -0.69,0.136 -1.69,0.205 -2.998,0.205 h -1.885 v 5.4 h -2.89 z m 2.89,-11.894 v 4.062 h 1.582 c 1.139,0 1.9,-0.075 2.285,-0.225 0.384,-0.149 0.685,-0.384 0.904,-0.703 0.218,-0.319 0.327,-0.69 0.327,-1.113 0,-0.521 -0.153,-0.951 -0.459,-1.289 -0.306,-0.338 -0.693,-0.55 -1.162,-0.635 -0.345,-0.065 -1.038,-0.097 -2.08,-0.097 h -1.397 z" id="path3309" style="fill: rgb(255, 0, 0);"/>
		</g><g transform="matrix(1.40339, 0, 0, 1.40339, 247.089, 66.2349)" id="text5517-6-7-8-9">
			<path d="m -103.14,790.474 h -3.145 l -1.25,-3.252 h -5.723 l -1.182,3.252 h -3.067 l 5.577,-14.317 h 3.056 l 5.734,14.317 z m -5.322,-5.664 -1.973,-5.312 -1.934,5.312 h 3.907 z" id="path3298" style="fill: rgb(255, 0, 0);"/>
			<path d="m -101.607,776.158 h 5.284 c 1.191,0 2.099,0.09 2.724,0.273 0.84,0.248 1.559,0.688 2.159,1.318 0.599,0.632 1.054,1.406 1.367,2.32 0.312,0.914 0.468,2.043 0.468,3.383 0,1.179 -0.146,2.195 -0.439,3.048 -0.358,1.041 -0.869,1.884 -1.534,2.529 -0.501,0.489 -1.178,0.87 -2.031,1.143 -0.638,0.202 -1.491,0.303 -2.559,0.303 h -5.44 v -14.317 z m 2.891,2.421 v 9.482 h 2.159 c 0.807,0 1.39,-0.045 1.748,-0.136 0.469,-0.117 0.858,-0.316 1.167,-0.596 0.31,-0.28 0.562,-0.74 0.757,-1.382 0.195,-0.642 0.293,-1.516 0.293,-2.622 0,-1.106 -0.098,-1.957 -0.293,-2.548 -0.196,-0.593 -0.469,-1.055 -0.82,-1.388 -0.351,-0.331 -0.797,-0.557 -1.338,-0.674 -0.404,-0.09 -1.195,-0.136 -2.373,-0.136 h -1.3 z" id="path3300" style="fill: rgb(255, 0, 0);"/>
			<path d="m -87.143,790.474 v -14.317 h 4.639 c 1.758,0 2.904,0.071 3.438,0.214 0.82,0.214 1.507,0.682 2.06,1.401 0.553,0.719 0.83,1.649 0.83,2.788 0,0.88 -0.159,1.619 -0.479,2.217 -0.319,0.6 -0.724,1.07 -1.216,1.411 -0.491,0.342 -0.992,0.568 -1.499,0.679 -0.69,0.136 -1.69,0.205 -2.998,0.205 h -1.884 v 5.401 h -2.891 z m 2.89,-11.895 v 4.062 h 1.582 c 1.14,0 1.901,-0.075 2.285,-0.224 0.384,-0.15 0.685,-0.384 0.903,-0.704 0.218,-0.319 0.327,-0.689 0.327,-1.113 0,-0.521 -0.152,-0.951 -0.459,-1.289 -0.306,-0.338 -0.694,-0.55 -1.162,-0.635 -0.345,-0.065 -1.038,-0.097 -2.08,-0.097 h -1.396 z" id="path3302" style="fill: rgb(255, 0, 0);"/>
		</g><g transform="matrix(1.40339, 0, 0, 1.40339, 247.089, 66.2349)" id="text5517-3-0-76">
			<path d="m -104.253,565.598 h -3.144 l -1.25,-3.252 h -5.723 l -1.182,3.252 h -3.066 l 5.576,-14.317 h 3.057 l 5.732,14.317 z m -5.322,-5.664 -1.973,-5.314 -1.934,5.314 h 3.907 z" id="path3291" style="fill: rgb(255, 0, 0);"/>
			<path d="m -99.487,565.598 v -11.895 h -4.248 v -2.422 h 11.377 v 2.422 h -4.238 v 11.895 h -2.891 z" id="path3293" style="fill: rgb(255, 0, 0);"/>
			<path d="m -90.484,565.598 v -14.317 h 4.639 c 1.758,0 2.904,0.071 3.438,0.214 0.82,0.214 1.507,0.682 2.061,1.401 0.553,0.719 0.829,1.649 0.829,2.788 0,0.88 -0.159,1.619 -0.478,2.217 -0.319,0.6 -0.724,1.07 -1.216,1.411 -0.492,0.342 -0.992,0.568 -1.5,0.679 -0.69,0.136 -1.69,0.205 -2.998,0.205 h -1.885 v 5.401 h -2.89 z m 2.891,-11.895 v 4.062 h 1.582 c 1.139,0 1.901,-0.075 2.285,-0.224 0.384,-0.15 0.685,-0.384 0.903,-0.704 0.218,-0.319 0.327,-0.69 0.327,-1.113 0,-0.521 -0.153,-0.951 -0.459,-1.289 -0.305,-0.338 -0.693,-0.55 -1.162,-0.635 -0.344,-0.065 -1.038,-0.097 -2.08,-0.097 h -1.396 z" id="path3295" style="fill: rgb(255, 0, 0);"/>
		</g><g transform="matrix(1.40339, 0, 0, 1.40339, 247.089, 66.2349)" id="text5517-6-7-8-8">
			<path d="m -104.253,540.25 h -3.144 l -1.25,-3.252 h -5.723 l -1.182,3.252 h -3.066 l 5.576,-14.317 h 3.057 l 5.732,14.317 z m -5.322,-5.665 -1.973,-5.312 -1.934,5.312 h 3.907 z" id="path3284" style="fill: rgb(255, 0, 0);"/>
			<path d="m -102.72,525.933 h 5.283 c 1.191,0 2.099,0.09 2.725,0.273 0.84,0.248 1.559,0.688 2.158,1.319 0.599,0.63 1.055,1.404 1.367,2.319 0.312,0.915 0.468,2.043 0.468,3.385 0,1.177 -0.146,2.193 -0.439,3.046 -0.358,1.041 -0.869,1.884 -1.533,2.529 -0.502,0.489 -1.179,0.87 -2.031,1.143 -0.638,0.202 -1.491,0.303 -2.559,0.303 h -5.44 v -14.317 z m 2.891,2.422 v 9.483 h 2.158 c 0.807,0 1.39,-0.046 1.748,-0.138 0.469,-0.117 0.858,-0.316 1.167,-0.596 0.31,-0.28 0.562,-0.74 0.757,-1.382 0.196,-0.64 0.293,-1.514 0.293,-2.622 0,-1.106 -0.097,-1.955 -0.293,-2.548 -0.196,-0.593 -0.469,-1.055 -0.82,-1.386 -0.351,-0.333 -0.797,-0.557 -1.337,-0.675 -0.404,-0.09 -1.195,-0.136 -2.374,-0.136 h -1.299 z" id="path3286" style="fill: rgb(255, 0, 0);"/>
			<path d="m -88.257,540.25 v -14.317 h 4.639 c 1.758,0 2.904,0.071 3.438,0.214 0.82,0.216 1.507,0.682 2.06,1.401 0.554,0.719 0.83,1.649 0.83,2.789 0,0.878 -0.159,1.617 -0.479,2.216 -0.319,0.6 -0.724,1.07 -1.216,1.411 -0.491,0.342 -0.991,0.569 -1.499,0.679 -0.69,0.136 -1.69,0.205 -2.998,0.205 h -1.885 v 5.401 h -2.89 z m 2.891,-11.895 v 4.062 h 1.582 c 1.139,0 1.901,-0.075 2.285,-0.224 0.384,-0.15 0.685,-0.384 0.903,-0.703 0.218,-0.32 0.327,-0.69 0.327,-1.113 0,-0.522 -0.153,-0.951 -0.459,-1.29 -0.306,-0.338 -0.693,-0.55 -1.162,-0.635 -0.345,-0.065 -1.038,-0.097 -2.08,-0.097 h -1.396 z" id="path3288" style="fill: rgb(255, 0, 0);"/>
		</g><g id="g4439"><path d="m 527.89979,1062.3813 c 0.61048,8.0386 55.13376,14.7525 126.78968,15.6071" id="path3343-9-1" style="fill: none; stroke: rgb(0, 0, 0); stroke-width: 2.806; stroke-linecap: round; stroke-linejoin: round; stroke-miterlimit: 4; stroke-dasharray: none;"/><path d="m 653.22994,1071.4023 16.07308,7.0156 -16.36218,5.6542 3.44815,-6.2479 -3.15905,-6.4219 0,0 z" id="path2556-1-6-49-5-7" style="stroke: rgb(0, 0, 0); stroke-width: 2.71739; stroke-linecap: round; stroke-miterlimit: 10;"/></g><g transform="matrix(1.40339, 0, 0, 1.40339, 247.089, 66.2349)" id="text5517-3-4">
			<path d="M 307.407,728.107 V 713.79 h 2.891 v 5.635 h 5.664 v -5.635 h 2.891 v 14.317 h -2.891 v -6.26 h -5.664 v 6.26 h -2.891 z" id="path3280"/>
		</g><g transform="matrix(1.40339, 0, 0, 1.40339, 247.089, 66.2349)" id="text5517-3-4-9">
			<path d="m 327.616,720.79 c 0,-1.458 0.218,-2.682 0.654,-3.671 0.326,-0.729 0.77,-1.383 1.333,-1.964 0.563,-0.579 1.18,-1.009 1.85,-1.289 0.892,-0.377 1.921,-0.566 3.086,-0.566 2.109,0 3.797,0.654 5.063,1.962 1.266,1.31 1.9,3.129 1.9,5.46 0,2.312 -0.628,4.119 -1.885,5.425 -1.256,1.305 -2.936,1.958 -5.039,1.958 -2.129,0 -3.822,-0.65 -5.078,-1.948 -1.256,-1.298 -1.884,-3.089 -1.884,-5.367 z m 2.978,-0.098 c 0,1.621 0.374,2.85 1.123,3.687 0.749,0.836 1.699,1.254 2.852,1.254 1.153,0 2.098,-0.415 2.837,-1.244 0.738,-0.831 1.108,-2.075 1.108,-3.735 0,-1.641 -0.36,-2.866 -1.079,-3.673 -0.72,-0.807 -1.675,-1.211 -2.866,-1.211 -1.191,0 -2.152,0.409 -2.881,1.226 -0.729,0.817 -1.094,2.048 -1.094,3.696 z" id="path3277"/>
		</g><g transform="matrix(1.40339, 0, 0, 1.40339, 247.089, 66.2349)" id="text5517-3-9-2-2-8">
			<path d="m 326.914,735.591 v 1.784 h -6.734 c 0.073,-0.675 0.292,-1.314 0.656,-1.918 0.364,-0.604 1.085,-1.404 2.161,-2.402 0.866,-0.807 1.397,-1.354 1.592,-1.641 0.264,-0.397 0.397,-0.789 0.397,-1.176 0,-0.429 -0.115,-0.757 -0.345,-0.988 -0.23,-0.23 -0.548,-0.345 -0.953,-0.345 -0.402,0 -0.72,0.121 -0.958,0.363 -0.237,0.241 -0.374,0.642 -0.41,1.202 l -1.914,-0.191 c 0.114,-1.058 0.472,-1.816 1.074,-2.277 0.601,-0.461 1.353,-0.69 2.256,-0.69 0.989,0 1.765,0.266 2.33,0.799 0.566,0.534 0.848,1.197 0.848,1.99 0,0.451 -0.081,0.881 -0.243,1.289 -0.162,0.408 -0.418,0.835 -0.769,1.282 -0.232,0.296 -0.652,0.722 -1.258,1.278 -0.606,0.557 -0.99,0.926 -1.152,1.108 -0.162,0.182 -0.293,0.36 -0.393,0.533 h 3.815 z" id="path3274"/>
		</g><g id="g4427"><path d="m 292.03968,1062.6227 c -0.61048,8.0386 -55.13516,14.7524 -126.78969,15.6071" id="path3343-9-1-2" style="fill: none; stroke: rgb(0, 0, 0); stroke-width: 2.806; stroke-linecap: round; stroke-linejoin: round; stroke-miterlimit: 4; stroke-dasharray: none;"/><path d="m 166.70812,1071.6451 -16.07167,7.0156 16.36217,5.6542 -3.44954,-6.2479 3.15904,-6.4219 z" id="path2556-1-6-49-5-7-4" style="stroke: rgb(0, 0, 0); stroke-width: 2.71739; stroke-linecap: round; stroke-miterlimit: 10;"/></g><g transform="matrix(1.40339, 0, 0, 1.40339, 247.089, 66.2349)" id="text5517-3-4-52">
			<path d="m -110.271,730.209 v -14.315 h 2.891 v 5.634 h 5.664 v -5.634 h 2.891 v 14.315 h -2.891 v -6.259 h -5.664 v 6.259 h -2.891 z" id="path3270"/>
		</g><g transform="matrix(1.40339, 0, 0, 1.40339, 247.089, 66.2349)" id="text5517-3-4-9-6">
			<path d="m -90.063,722.893 c 0,-1.459 0.218,-2.682 0.655,-3.673 0.325,-0.728 0.77,-1.383 1.333,-1.962 0.564,-0.579 1.18,-1.009 1.851,-1.289 0.891,-0.379 1.921,-0.566 3.085,-0.566 2.11,0 3.797,0.654 5.064,1.962 1.266,1.308 1.9,3.129 1.9,5.46 0,2.31 -0.628,4.12 -1.885,5.425 -1.257,1.305 -2.937,1.958 -5.039,1.958 -2.129,0 -3.822,-0.65 -5.078,-1.948 -1.257,-1.301 -1.886,-3.089 -1.886,-5.367 z m 2.979,-0.098 c 0,1.62 0.374,2.849 1.123,3.687 0.749,0.836 1.699,1.254 2.851,1.254 1.152,0 2.098,-0.415 2.837,-1.244 0.739,-0.831 1.108,-2.076 1.108,-3.735 0,-1.641 -0.36,-2.866 -1.079,-3.673 -0.719,-0.807 -1.674,-1.211 -2.866,-1.211 -1.191,0 -2.152,0.409 -2.881,1.226 -0.728,0.817 -1.093,2.048 -1.093,3.696 z" id="path3267"/>
		</g><g transform="matrix(1.40339, 0, 0, 1.40339, 247.089, 66.2349)" id="text5517-3-9-2-2-8-4">
			<path d="m -90.765,733.758 v 1.784 h -6.733 c 0.073,-0.675 0.292,-1.314 0.656,-1.918 0.365,-0.604 1.085,-1.404 2.16,-2.402 0.866,-0.807 1.397,-1.354 1.593,-1.641 0.264,-0.397 0.397,-0.789 0.397,-1.176 0,-0.429 -0.115,-0.757 -0.345,-0.988 -0.23,-0.23 -0.548,-0.345 -0.953,-0.345 -0.402,0 -0.72,0.121 -0.957,0.363 -0.237,0.241 -0.374,0.642 -0.41,1.202 l -1.914,-0.191 c 0.114,-1.058 0.472,-1.816 1.073,-2.277 0.602,-0.461 1.354,-0.69 2.256,-0.69 0.989,0 1.766,0.266 2.331,0.8 0.565,0.533 0.848,1.195 0.848,1.989 0,0.451 -0.081,0.881 -0.242,1.289 -0.162,0.408 -0.418,0.835 -0.77,1.282 -0.232,0.296 -0.651,0.722 -1.257,1.278 -0.606,0.557 -0.99,0.926 -1.152,1.108 -0.162,0.182 -0.293,0.36 -0.393,0.533 h 3.812 z" id="path3264"/>
		</g><g transform="matrix(1.40339, 0, 0, 1.40339, 247.089, 66.2349)" id="text5517-6-7-7-0">
			<path d="m 306.535,451.635 v -14.317 h 2.813 l 5.859,9.561 v -9.561 h 2.685 v 14.317 h -2.9 l -5.771,-9.336 v 9.336 h -2.686 z" id="path3392" style="fill: rgb(0, 0, 255);"/>
			<path d="m 333.869,451.635 h -3.145 l -1.25,-3.251 h -5.722 l -1.182,3.251 h -3.066 l 5.576,-14.317 h 3.057 l 5.732,14.317 z m -5.323,-5.664 -1.973,-5.312 -1.933,5.312 h 3.906 z" id="path3394" style="fill: rgb(0, 0, 255);"/>
			<path d="m 335.402,437.318 h 5.284 c 1.191,0 2.099,0.092 2.724,0.274 0.84,0.248 1.559,0.686 2.158,1.318 0.599,0.632 1.055,1.404 1.367,2.32 0.312,0.914 0.469,2.042 0.469,3.383 0,1.179 -0.147,2.195 -0.44,3.046 -0.358,1.042 -0.869,1.886 -1.533,2.53 -0.501,0.488 -1.178,0.868 -2.031,1.143 -0.638,0.202 -1.491,0.302 -2.559,0.302 h -5.44 v -14.316 z m 2.89,2.423 v 9.482 h 2.159 c 0.807,0 1.39,-0.046 1.748,-0.136 0.468,-0.117 0.857,-0.316 1.167,-0.596 0.309,-0.28 0.562,-0.74 0.757,-1.382 0.195,-0.642 0.292,-1.516 0.292,-2.622 0,-1.106 -0.097,-1.957 -0.292,-2.55 -0.196,-0.591 -0.469,-1.054 -0.82,-1.386 -0.352,-0.333 -0.798,-0.557 -1.338,-0.674 -0.404,-0.092 -1.195,-0.136 -2.373,-0.136 h -1.3 z" id="path3396" style="fill: rgb(0, 0, 255);"/>
		</g><g transform="matrix(1.40339, 0, 0, 1.40339, 247.089, 66.2349)" id="text5517-3-9-2-4">
			<path d="m 350.263,441.605 v -2.604 h -2.625 v -1.798 h 2.625 v -2.605 h 1.75 v 2.605 h 2.632 v 1.798 h -2.632 v 2.604 h -1.75 z" id="path3399" style="fill: rgb(0, 0, 255);"/>
		</g><g transform="matrix(1.40339, 0, 0, 1.40339, 247.089, 66.2349)" id="text5517-3-9-4">
			<path d="m 306.535,478.983 v -14.317 h 2.813 l 5.859,9.561 v -9.561 h 2.685 v 14.317 h -2.9 l -5.771,-9.336 v 9.336 h -2.686 z" id="path3376" style="fill: rgb(0, 0, 255);"/>
			<path d="m 333.869,478.983 h -3.145 l -1.25,-3.252 h -5.722 l -1.182,3.252 h -3.066 l 5.576,-14.317 h 3.057 l 5.732,14.317 z m -5.323,-5.664 -1.973,-5.312 -1.933,5.312 h 3.906 z" id="path3378" style="fill: rgb(0, 0, 255);"/>
			<path d="m 335.402,464.667 h 5.284 c 1.191,0 2.099,0.092 2.724,0.274 0.84,0.246 1.559,0.686 2.158,1.318 0.599,0.632 1.055,1.404 1.367,2.32 0.312,0.914 0.469,2.042 0.469,3.383 0,1.179 -0.147,2.193 -0.44,3.046 -0.358,1.042 -0.869,1.884 -1.533,2.53 -0.501,0.487 -1.178,0.868 -2.031,1.143 -0.638,0.202 -1.491,0.302 -2.559,0.302 h -5.44 v -14.316 z m 2.89,2.422 v 9.483 h 2.159 c 0.807,0 1.39,-0.046 1.748,-0.136 0.468,-0.118 0.857,-0.316 1.167,-0.596 0.309,-0.28 0.562,-0.74 0.757,-1.382 0.195,-0.642 0.292,-1.516 0.292,-2.622 0,-1.108 -0.097,-1.957 -0.292,-2.55 -0.196,-0.591 -0.469,-1.055 -0.82,-1.386 -0.352,-0.333 -0.798,-0.557 -1.338,-0.674 -0.404,-0.092 -1.195,-0.138 -2.373,-0.138 h -1.3 z" id="path3380" style="fill: rgb(0, 0, 255);"/>
			<path d="m 349.875,478.983 v -14.317 h 2.891 v 5.635 h 5.664 v -5.635 h 2.891 v 14.317 h -2.891 v -6.26 h -5.664 v 6.26 h -2.891 z" id="path3382" style="fill: rgb(0, 0, 255);"/>
			<path d="m 368.381,479.228 3.545,-14.805 h 2.06 l -3.584,14.805 h -2.021 z" id="path3384" style="fill: rgb(0, 0, 255);"/>
			<path d="m 380.969,478.983 v -14.317 h 2.891 v 5.635 h 5.664 v -5.635 h 2.891 v 14.317 h -2.891 v -6.26 h -5.664 v 6.26 h -2.891 z" id="path3386" style="fill: rgb(0, 0, 255);"/>
		</g><g transform="matrix(1.40339, 0, 0, 1.40339, 247.089, 66.2349)" id="text5517-3-9-2-2-5">
			<path d="m 396.724,468.003 v -2.604 h -2.625 v -1.798 h 2.625 v -2.605 h 1.75 v 2.605 h 2.632 v 1.798 h -2.632 v 2.604 h -1.75 z" id="path3389" style="fill: rgb(0, 0, 255);"/>
		</g><g transform="matrix(1.40339, 0, 0, 1.40339, 247.089, 66.2349)" id="text5517-6-7-7-7">
			<path d="m 355.921,444.541 v -2.744 h 2.744 v 2.744 h -2.744 z m 0,4.882 h 2.744 v 1.962 c 0,0.795 -0.068,1.421 -0.205,1.88 -0.136,0.459 -0.395,0.871 -0.776,1.236 -0.381,0.365 -0.864,0.651 -1.45,0.859 l -0.537,-1.133 c 0.553,-0.182 0.947,-0.436 1.182,-0.761 0.234,-0.326 0.358,-0.758 0.371,-1.298 h -1.328 v -2.745 z" id="path3259"/>
			<path d="m 367.717,452.168 v -14.317 h 4.639 c 1.758,0 2.903,0.071 3.438,0.214 0.82,0.216 1.507,0.682 2.06,1.401 0.553,0.719 0.83,1.649 0.83,2.789 0,0.878 -0.16,1.617 -0.479,2.216 -0.319,0.6 -0.724,1.07 -1.216,1.411 -0.492,0.342 -0.992,0.569 -1.5,0.679 -0.69,0.136 -1.689,0.205 -2.998,0.205 h -1.885 v 5.401 h -2.889 z m 2.891,-11.895 v 4.062 h 1.582 c 1.139,0 1.901,-0.075 2.285,-0.224 0.384,-0.15 0.685,-0.384 0.903,-0.703 0.218,-0.32 0.327,-0.69 0.327,-1.113 0,-0.522 -0.153,-0.951 -0.459,-1.29 -0.306,-0.338 -0.694,-0.55 -1.162,-0.635 -0.345,-0.064 -1.039,-0.097 -2.081,-0.097 h -1.395 z" id="path3261"/>
		</g><g transform="matrix(1.40339, 0, 0, 1.40339, 247.089, 66.2349)" id="text5517-3-9-2-0">
			<path d="m 379.043,448.716 v -1.777 h 1.921 v 1.777 h -1.921 z m 0,8.244 v -7.26 h 1.921 v 7.259 h -1.921 z" id="path3256"/>
		</g><g transform="matrix(1.40339, 0, 0, 1.40339, 247.089, 66.2349)" id="text5517-6-7-7-7-7">
			<path d="m -151.264,455.43 v -14.317 h 4.639 c 1.758,0 2.904,0.072 3.438,0.216 0.82,0.214 1.507,0.682 2.06,1.401 0.554,0.72 0.83,1.648 0.83,2.788 0,0.88 -0.159,1.619 -0.478,2.217 -0.319,0.598 -0.724,1.069 -1.216,1.411 -0.491,0.342 -0.991,0.568 -1.499,0.679 -0.69,0.136 -1.69,0.205 -2.998,0.205 h -1.885 v 5.4 h -2.891 z m 2.891,-11.893 v 4.062 h 1.582 c 1.139,0 1.901,-0.075 2.285,-0.225 0.384,-0.149 0.685,-0.384 0.903,-0.703 0.218,-0.319 0.327,-0.69 0.327,-1.113 0,-0.521 -0.153,-0.951 -0.459,-1.289 -0.305,-0.338 -0.693,-0.55 -1.162,-0.635 -0.345,-0.065 -1.038,-0.097 -2.08,-0.097 h -1.396 z" id="path3251"/>
			<path d="m -131.928,447.804 v -2.744 h 2.744 v 2.744 h -2.744 z m 0,4.883 h 2.744 v 1.962 c 0,0.795 -0.068,1.421 -0.205,1.88 -0.136,0.459 -0.395,0.87 -0.776,1.234 -0.381,0.365 -0.864,0.651 -1.45,0.86 l -0.537,-1.133 c 0.553,-0.182 0.947,-0.436 1.182,-0.761 0.234,-0.326 0.358,-0.758 0.371,-1.3 h -1.328 v -2.742 z" id="path3253"/>
		</g><g transform="matrix(1.40339, 0, 0, 1.40339, 247.089, 66.2349)" id="text5517-3-9-2-0-1">
			<path d="m -137.712,451.979 v -1.777 h 1.921 v 1.777 h -1.921 z m 0,8.244 v -7.259 h 1.921 v 7.259 h -1.921 z" id="path3248"/>
		</g>
</svg>